STARTFONT 2.1
FONT -FontForge-Futura-Medium-R-Normal--36-350-75-75-P-196-ISO10646-1
SIZE 35 75 75
FONTBOUNDINGBOX 67 48 -19 -10
COMMENT "Generated by fontforge, http://fontforge.sourceforge.net"
COMMENT "(c) Copyright 1998, Neufville Digital. ALL RIGHTS RESERVED. This font is licensed, not sold, and may not be reproduced without the written consent of Neufville Digital. Parts (c) Visualogik Technology & Design, 1998."
STARTPROPERTIES 40
FOUNDRY "FontForge"
FAMILY_NAME "Futura"
WEIGHT_NAME "Medium"
SLANT "R"
SETWIDTH_NAME "Normal"
ADD_STYLE_NAME ""
PIXEL_SIZE 36
POINT_SIZE 350
RESOLUTION_X 75
RESOLUTION_Y 75
SPACING "P"
AVERAGE_WIDTH 196
CHARSET_REGISTRY "ISO10646"
CHARSET_ENCODING "1"
FONTNAME_REGISTRY ""
CHARSET_COLLECTIONS "ISO8859-2 ISO8859-9 ISO8859-4 ISO10646-1"
FONT_NAME "Futura-Medium"
FACE_NAME "Futura Medium"
COPYRIGHT "(c) Copyright 1998, Neufville Digital. ALL RIGHTS RESERVED. This font is licensed, not sold, and may not be reproduced without the written consent of Neufville Digital. Parts (c) Visualogik Technology & Design, 1998."
FONT_VERSION "16.0d2e1"
FONT_ASCENT 29
FONT_DESCENT 7
UNDERLINE_POSITION -5
UNDERLINE_THICKNESS 3
X_HEIGHT 16
CAP_HEIGHT 26
RAW_ASCENT 799
RAW_DESCENT 200
NORM_SPACE 11
RELATIVE_WEIGHT 50
RELATIVE_SETWIDTH 50
SUPERSCRIPT_X 0
SUPERSCRIPT_Y 16
SUPERSCRIPT_SIZE 21
SUBSCRIPT_X 0
SUBSCRIPT_Y 2
SUBSCRIPT_SIZE 21
FIGURE_WIDTH 22
AVG_LOWERCASE_WIDTH 186
AVG_UPPERCASE_WIDTH 240
ENDPROPERTIES
CHARS 419
STARTCHAR .null
ENCODING 0
SWIDTH 0 0
DWIDTH 0 0
BBX 1 1 0 0
BITMAP
00
ENDCHAR
STARTCHAR controlBS
ENCODING 8
SWIDTH 0 0
DWIDTH 0 0
BBX 1 1 0 0
BITMAP
00
ENDCHAR
STARTCHAR controlHT
ENCODING 9
SWIDTH 308 0
DWIDTH 11 0
BBX 1 1 0 0
BITMAP
00
ENDCHAR
STARTCHAR controlCR
ENCODING 13
SWIDTH 500 0
DWIDTH 18 0
BBX 1 1 0 0
BITMAP
00
ENDCHAR
STARTCHAR controlGS
ENCODING 29
SWIDTH 0 0
DWIDTH 0 0
BBX 1 1 0 0
BITMAP
00
ENDCHAR
STARTCHAR space
ENCODING 32
SWIDTH 308 0
DWIDTH 11 0
BBX 1 1 0 0
BITMAP
00
ENDCHAR
STARTCHAR exclam
ENCODING 33
SWIDTH 331 0
DWIDTH 12 0
BBX 4 27 4 0
BITMAP
F0
F0
F0
F0
F0
F0
F0
F0
F0
F0
F0
F0
F0
F0
F0
F0
F0
F0
F0
F0
F0
00
00
F0
F0
F0
F0
ENDCHAR
STARTCHAR quotedbl
ENCODING 34
SWIDTH 410 0
DWIDTH 15 0
BBX 11 11 2 16
BITMAP
F3E0
F3E0
F1E0
F1E0
F1E0
F1C0
F1C0
F1C0
71C0
71C0
71C0
ENDCHAR
STARTCHAR numbersign
ENCODING 35
SWIDTH 617 0
DWIDTH 22 0
BBX 21 27 1 0
BITMAP
0383C0
038380
038380
038380
038380
078380
070380
7FFFF8
7FFFF8
7FFFF8
7FFFF8
070700
070700
0F0700
0E0700
0E0700
FFFFF0
FFFFF0
FFFFF0
0E0E00
0E0E00
1E0E00
1C0E00
1C0E00
1C1E00
1C1C00
1C1C00
ENDCHAR
STARTCHAR dollar
ENCODING 36
SWIDTH 617 0
DWIDTH 22 0
BBX 18 35 2 -4
BITMAP
00E000
00E000
00E000
00E000
07FC00
0FFE00
1FFF00
1F1F80
3C0700
3C0400
3C0000
3C0000
3E0000
1F0000
1FC000
0FF000
03FC00
00FE00
003F00
001F80
000780
000780
0003C0
F003C0
F80780
780780
7C0F80
3FFF00
3FFF00
1FFE00
07F800
00E000
00E000
00E000
00E000
ENDCHAR
STARTCHAR percent
ENCODING 37
SWIDTH 916 0
DWIDTH 33 0
BBX 31 28 1 0
BITMAP
00000200
0FC00300
3FF00700
7FF00E00
70780C00
F0381C00
E0381800
E0383800
70383000
70787000
7FF0E000
3FF0C000
0FC1C000
00018000
00038000
00030100
000707F0
000E1FF8
000C3E7C
001C3C1C
0018381C
0038380E
0030381E
0070381C
00E03C3C
00C01FF8
01C00FF8
018007E0
ENDCHAR
STARTCHAR ampersand
ENCODING 38
SWIDTH 730 0
DWIDTH 26 0
BBX 24 29 2 -1
BITMAP
002000
03FC00
07FE00
0FFF00
0F0F00
0E0700
0E0780
0F0F00
0F1F00
0FBE00
07FE00
03FC00
03F000
0FF000
1FF800
3F7C00
7E3E18
7C1F3C
F81FFC
F00FF8
F007F0
F003F0
F807F0
7C0FF8
7E3FF8
3FFF7C
1FFC3E
0FF81F
008000
ENDCHAR
STARTCHAR quotesingle
ENCODING 39
SWIDTH 231 0
DWIDTH 8 0
BBX 4 11 2 16
BITMAP
F0
F0
F0
F0
F0
F0
F0
F0
70
70
70
ENDCHAR
STARTCHAR parenleft
ENCODING 40
SWIDTH 366 0
DWIDTH 13 0
BBX 8 37 3 -7
BITMAP
08
1F
1E
1E
3E
3C
3C
7C
78
78
78
78
78
F8
F0
F0
F0
F0
F0
F0
F0
F0
F0
F0
78
78
78
78
78
78
3C
3C
3C
3E
1E
1E
0E
ENDCHAR
STARTCHAR parenright
ENCODING 41
SWIDTH 366 0
DWIDTH 13 0
BBX 8 37 2 -7
BITMAP
10
F8
78
7C
3C
3C
3C
1E
1E
1E
1E
1E
0F
0F
0F
0F
0F
0F
0F
0F
0F
0F
0F
0F
0F
1F
1E
1E
1E
1E
3E
3C
3C
7C
78
78
78
ENDCHAR
STARTCHAR asterisk
ENCODING 42
SWIDTH 617 0
DWIDTH 22 0
BBX 14 14 4 16
BITMAP
0780
0780
0780
4380
73B8
FFFC
FFFC
1FE0
0FC0
1FE0
1EF0
3CF0
1860
0800
ENDCHAR
STARTCHAR plus
ENCODING 43
SWIDTH 617 0
DWIDTH 22 0
BBX 18 18 2 5
BITMAP
01E000
01E000
01E000
01E000
01E000
01E000
01E000
FFFFC0
FFFFC0
FFFFC0
FFFFC0
01E000
01E000
01E000
01E000
01E000
01E000
01E000
ENDCHAR
STARTCHAR comma
ENCODING 44
SWIDTH 308 0
DWIDTH 11 0
BBX 7 11 1 -6
BITMAP
08
1E
1E
3C
3C
38
78
70
F0
E0
E0
ENDCHAR
STARTCHAR hyphen
ENCODING 45
SWIDTH 217 0
DWIDTH 8 0
BBX 8 3 0 7
BITMAP
FF
FF
FF
ENDCHAR
STARTCHAR period
ENCODING 46
SWIDTH 308 0
DWIDTH 11 0
BBX 5 5 3 -1
BITMAP
70
F8
F8
78
20
ENDCHAR
STARTCHAR slash
ENCODING 47
SWIDTH 518 0
DWIDTH 19 0
BBX 19 37 0 -7
BITMAP
000100
0001E0
0003C0
0003C0
000780
000780
000F00
000F00
000F00
001E00
001E00
003C00
003C00
007800
007800
007000
00F000
00F000
01E000
01E000
03C000
03C000
038000
078000
078000
0F0000
0F0000
1E0000
1E0000
1C0000
3C0000
3C0000
780000
780000
F00000
F00000
600000
ENDCHAR
STARTCHAR zero
ENCODING 48
SWIDTH 617 0
DWIDTH 22 0
BBX 19 28 2 0
BITMAP
00C000
07F800
0FFC00
1FFE00
3F1F00
7C0F80
780780
7807C0
F803C0
F003C0
F003C0
F003E0
F001E0
F001E0
F001E0
F001E0
F001E0
F003E0
F003C0
F003C0
F803C0
7807C0
7C0780
3C0F80
3F3F00
1FFE00
0FFC00
07F800
ENDCHAR
STARTCHAR one
ENCODING 49
SWIDTH 617 0
DWIDTH 22 0
BBX 9 27 5 0
BITMAP
3F80
7F80
7F80
FF80
0780
0780
0780
0780
0780
0780
0780
0780
0780
0780
0780
0780
0780
0780
0780
0780
0780
0780
0780
0780
0780
0780
0780
ENDCHAR
STARTCHAR two
ENCODING 50
SWIDTH 617 0
DWIDTH 22 0
BBX 18 28 1 0
BITMAP
00E000
07FC00
1FFE00
1FFF00
3E1F80
7C0780
7803C0
7803C0
7803C0
0003C0
0003C0
0007C0
000F80
000F80
001F00
003E00
007C00
007C00
00F800
01F000
03E000
07C000
0F8000
0F8000
1FFFC0
3FFFC0
7FFFC0
FFFFC0
ENDCHAR
STARTCHAR three
ENCODING 51
SWIDTH 617 0
DWIDTH 22 0
BBX 17 28 2 0
BITMAP
00C000
0FF800
3FFC00
3FFE00
7C3F00
780F00
F80F00
F00F00
000F00
000F00
000F00
003F00
01FE00
01FC00
01FE00
007F00
001F00
000F00
000780
000780
000780
F00780
F00F80
F81F00
7E7F00
7FFE00
3FFC00
0FF000
ENDCHAR
STARTCHAR four
ENCODING 52
SWIDTH 617 0
DWIDTH 22 0
BBX 20 29 1 0
BITMAP
000080
000080
000180
000380
000380
000780
000F80
001F80
001F80
003F80
007F80
007F80
00FF80
01F780
01E780
03C780
07C780
078780
0F0780
1F0780
1E0780
3FFFF0
7FFFF0
FFFFF0
FFFFF0
000780
000780
000780
000780
ENDCHAR
STARTCHAR five
ENCODING 53
SWIDTH 617 0
DWIDTH 22 0
BBX 18 27 1 0
BITMAP
01FFC0
03FFC0
03FFC0
03FFC0
078000
078000
078000
0F0000
0FF000
0FFC00
0FFE00
1FFF00
1C1F80
1007C0
0003C0
0003C0
0003C0
0003C0
0003C0
0003C0
2003C0
7007C0
F80F80
FE3F00
7FFF00
3FFC00
0FF800
ENDCHAR
STARTCHAR six
ENCODING 54
SWIDTH 617 0
DWIDTH 22 0
BBX 18 28 2 0
BITMAP
000800
001C00
003E00
007C00
007800
00F800
01F000
01E000
03C000
07C000
0F8000
0FF800
1FFE00
3FFF00
7FFF80
7C0F80
7807C0
F003C0
F003C0
F003C0
F003C0
F003C0
F807C0
7C0F80
3F3F80
3FFF00
0FFE00
07F800
ENDCHAR
STARTCHAR seven
ENCODING 55
SWIDTH 617 0
DWIDTH 22 0
BBX 20 28 2 -1
BITMAP
FFFFF0
FFFFE0
FFFFC0
FFFFC0
000780
000F80
000F00
001E00
003E00
003C00
007C00
00F800
00F000
01F000
01E000
03E000
07C000
078000
0F8000
0F0000
1F0000
3E0000
3C0000
7C0000
780000
F00000
700000
200000
ENDCHAR
STARTCHAR eight
ENCODING 56
SWIDTH 617 0
DWIDTH 22 0
BBX 17 28 3 0
BITMAP
01C000
0FF000
1FFC00
3FFE00
7C3E00
781F00
F00F00
F00F00
F00F00
F00F00
781F00
7C3E00
3FFE00
1FFC00
3FFC00
7FFE00
FC1F00
F80F00
F00F00
F00780
F00780
F00F80
F00F00
F81F00
7E7F00
7FFE00
3FFC00
0FF000
ENDCHAR
STARTCHAR nine
ENCODING 57
SWIDTH 617 0
DWIDTH 22 0
BBX 18 29 2 -1
BITMAP
00C000
07F800
1FFE00
3FFF00
7E1F80
7C0780
F807C0
F003C0
F003C0
F003C0
F003C0
F003C0
F807C0
7C0F80
3FFF80
3FFF00
1FFE00
07FE00
007C00
00F800
00F000
01F000
03E000
07C000
078000
0F8000
1F0000
0E0000
040000
ENDCHAR
STARTCHAR colon
ENCODING 58
SWIDTH 308 0
DWIDTH 11 0
BBX 5 19 3 -1
BITMAP
20
F8
F8
F8
70
00
00
00
00
00
00
00
00
00
70
F8
F8
78
20
ENDCHAR
STARTCHAR semicolon
ENCODING 59
SWIDTH 308 0
DWIDTH 11 0
BBX 8 24 1 -6
BITMAP
04
1E
1F
1F
0E
00
00
00
00
00
00
00
00
08
1E
1E
3C
3C
38
78
70
F0
E0
E0
ENDCHAR
STARTCHAR less
ENCODING 60
SWIDTH 617 0
DWIDTH 22 0
BBX 18 20 2 4
BITMAP
000040
0001C0
0007C0
003FC0
00FF80
03FE00
0FF800
3FC000
FF0000
FC0000
F80000
FE0000
7F8000
1FF000
03FC00
00FF00
003FC0
000FC0
0003C0
0000C0
ENDCHAR
STARTCHAR equal
ENCODING 61
SWIDTH 617 0
DWIDTH 22 0
BBX 18 8 2 10
BITMAP
FFFFC0
FFFFC0
FFFFC0
000000
000000
FFFFC0
FFFFC0
FFFFC0
ENDCHAR
STARTCHAR greater
ENCODING 62
SWIDTH 617 0
DWIDTH 22 0
BBX 18 20 2 4
BITMAP
C00000
F00000
FC0000
FF0000
3FC000
0FF000
03FC00
00FF00
003FC0
000FC0
0007C0
001FC0
007F80
01FE00
07F800
3FE000
FF8000
FE0000
F80000
E00000
ENDCHAR
STARTCHAR question
ENCODING 63
SWIDTH 489 0
DWIDTH 18 0
BBX 13 28 2 0
BITMAP
0100
1FE0
3FF0
7FF0
7CF8
F078
F078
F078
0078
01F8
07F0
1FF0
3FC0
7F00
7C00
7878
7878
78F8
7FF0
3FF0
1FE0
0700
0000
0000
0780
0F80
0F80
0780
ENDCHAR
STARTCHAR at
ENCODING 64
SWIDTH 880 0
DWIDTH 32 0
BBX 28 28 2 0
BITMAP
00078000
007FF000
01FFFC00
07E01F00
0F000780
1E000380
3C0001C0
381F18E0
787FD8E0
70FFF860
F1F9F870
E1E07870
E1C07870
E3C03870
E3C03870
E3C03060
E3C070E0
E1C070E0
F1E0F1C0
71FFFBC0
78FFBF80
383F1E00
3C000000
1E000000
0F800300
07F03F00
01FFFF00
007FF800
ENDCHAR
STARTCHAR A
ENCODING 65
SWIDTH 740 0
DWIDTH 27 0
BBX 26 29 0 0
BITMAP
00040000
00040000
000E0000
000E0000
000F0000
001F0000
001F0000
003F8000
003F8000
007BC000
007BC000
00FBE000
00F1E000
01F1F000
01E0F000
03E0F000
03C07800
07C07800
07807C00
07FFFC00
0FFFFE00
0FFFFE00
1F001F00
1E000F00
3E000F80
3C000780
7C000780
780007C0
F80003C0
ENDCHAR
STARTCHAR B
ENCODING 66
SWIDTH 591 0
DWIDTH 21 0
BBX 16 27 3 0
BITMAP
FF80
FFE0
FFF0
FFF8
F078
F03C
F03C
F03C
F03C
F03C
F078
F3F8
FFF0
FFFC
FFFE
F03E
F01F
F00F
F00F
F00F
F00F
F01F
F03F
FFFE
FFFC
FFF8
FFE0
ENDCHAR
STARTCHAR C
ENCODING 67
SWIDTH 700 0
DWIDTH 25 0
BBX 21 29 2 -1
BITMAP
000F00
00FFF0
03FFF8
07FFF8
0FF0F8
1F8018
3F0008
3E0000
7C0000
780000
F80000
F00000
F00000
F00000
F00000
F00000
F00000
F00000
F80000
780000
7C0000
3E0000
3F0008
1F8018
0FF0F8
07FFF8
01FFF8
007FE0
000400
ENDCHAR
STARTCHAR D
ENCODING 68
SWIDTH 726 0
DWIDTH 26 0
BBX 21 27 3 0
BITMAP
FFF000
FFFC00
FFFF00
FFFF80
F01FC0
F007E0
F003F0
F001F0
F000F0
F000F8
F00078
F00078
F00078
F00078
F00078
F00078
F00078
F000F8
F000F0
F001F0
F003E0
F007E0
F01FC0
FFFF80
FFFF00
FFFC00
FFE000
ENDCHAR
STARTCHAR E
ENCODING 69
SWIDTH 565 0
DWIDTH 20 0
BBX 15 27 3 0
BITMAP
FFFE
FFFE
FFFE
FFFE
F000
F000
F000
F000
F000
F000
FFFE
FFFE
FFFE
FFFE
F000
F000
F000
F000
F000
F000
F000
F000
F000
FFFE
FFFE
FFFE
FFFE
ENDCHAR
STARTCHAR F
ENCODING 70
SWIDTH 508 0
DWIDTH 18 0
BBX 14 27 3 0
BITMAP
FFFC
FFFC
FFFC
FFFC
F000
F000
F000
F000
F000
F000
FFF8
FFF8
FFF8
FFF8
F000
F000
F000
F000
F000
F000
F000
F000
F000
F000
F000
F000
F000
ENDCHAR
STARTCHAR G
ENCODING 71
SWIDTH 842 0
DWIDTH 30 0
BBX 26 28 2 0
BITMAP
000F0000
00FFF000
03FFFC00
07FFFE00
0FF0FF00
1F801F80
3F000F80
3E000700
7C000000
78000000
F8000000
F0000000
F0000000
F0000000
F001FFC0
F001FFC0
F001FFC0
F001FFC0
F80003C0
780003C0
7C0007C0
3E000F80
3F001F80
1F803F00
0FF1FE00
07FFFC00
01FFF800
00FFE000
ENDCHAR
STARTCHAR H
ENCODING 72
SWIDTH 733 0
DWIDTH 26 0
BBX 20 27 3 0
BITMAP
F000F0
F000F0
F000F0
F000F0
F000F0
F000F0
F000F0
F000F0
F000F0
F000F0
FFFFF0
FFFFF0
FFFFF0
FFFFF0
F000F0
F000F0
F000F0
F000F0
F000F0
F000F0
F000F0
F000F0
F000F0
F000F0
F000F0
F000F0
F000F0
ENDCHAR
STARTCHAR I
ENCODING 73
SWIDTH 294 0
DWIDTH 11 0
BBX 4 27 3 0
BITMAP
F0
F0
F0
F0
F0
F0
F0
F0
F0
F0
F0
F0
F0
F0
F0
F0
F0
F0
F0
F0
F0
F0
F0
F0
F0
F0
F0
ENDCHAR
STARTCHAR J
ENCODING 74
SWIDTH 410 0
DWIDTH 15 0
BBX 12 28 0 -1
BITMAP
01F0
01F0
01F0
01F0
01F0
01F0
01F0
01F0
01F0
01F0
01F0
01F0
01F0
01F0
01F0
01F0
01F0
01F0
01F0
01E0
01E0
01E0
03E0
67E0
FFC0
FF80
FF00
0800
ENDCHAR
STARTCHAR K
ENCODING 75
SWIDTH 662 0
DWIDTH 24 0
BBX 20 27 3 0
BITMAP
F003F0
F007E0
F00FC0
F01F80
F03F00
F07E00
F0FC00
F1F800
F3F000
F7E000
F7C000
FF8000
FF0000
FF8000
FFC000
FBE000
F3F000
F1F800
F0F800
F07C00
F03E00
F01F00
F01F80
F00FC0
F007C0
F003E0
F001F0
ENDCHAR
STARTCHAR L
ENCODING 76
SWIDTH 443 0
DWIDTH 16 0
BBX 12 27 3 0
BITMAP
F000
F000
F000
F000
F000
F000
F000
F000
F000
F000
F000
F000
F000
F000
F000
F000
F000
F000
F000
F000
F000
F000
F000
FFF0
FFF0
FFF0
FFF0
ENDCHAR
STARTCHAR M
ENCODING 77
SWIDTH 961 0
DWIDTH 35 0
BBX 30 29 2 -1
BITMAP
02000080
06000080
070001C0
070001C0
078003C0
078003C0
0F8007C0
0FC007E0
0FC007E0
0FE00FE0
0FE00FE0
0FF01FE0
1EF01FE0
1EF03CF0
1E783CF0
1E787CF0
1E3C78F0
3C3CF8F0
3C1EF0F0
3C1EF078
3C1FE078
3C0FE078
7C0FC078
7807C078
78078078
7803803C
7803803C
F803003C
00010000
ENDCHAR
STARTCHAR N
ENCODING 78
SWIDTH 844 0
DWIDTH 30 0
BBX 24 30 3 -1
BITMAP
800000
C00000
E0000F
F0000F
F8000F
FC000F
FC000F
FE000F
FF000F
FF800F
F7C00F
F3E00F
F1F00F
F0F80F
F07C0F
F03E0F
F01F0F
F00F8F
F00FCF
F007EF
F003FF
F001FF
F000FF
F0007F
F0003F
F0001F
F0000F
F00007
F00003
000001
ENDCHAR
STARTCHAR O
ENCODING 79
SWIDTH 893 0
DWIDTH 32 0
BBX 28 29 2 -1
BITMAP
000F0000
00FFF000
01FFFC00
07FFFE00
0FF07F00
1F801F80
3F0007C0
3E0003C0
7C0003E0
780001E0
F80001F0
F00000F0
F00000F0
F00000F0
F00000F0
F00000F0
F00000F0
F00000F0
F80001F0
780001E0
7C0003E0
3E0007C0
3F000FC0
1F801F80
0FF0FF00
07FFFE00
01FFF800
007FE000
00040000
ENDCHAR
STARTCHAR P
ENCODING 80
SWIDTH 540 0
DWIDTH 19 0
BBX 15 27 3 0
BITMAP
FFE0
FFF0
FFF8
FFFC
F03E
F01E
F01E
F01E
F01E
F01E
F01E
F07E
FFFC
FFF8
FFF0
FFC0
F000
F000
F000
F000
F000
F000
F000
F000
F000
F000
F000
ENDCHAR
STARTCHAR Q
ENCODING 81
SWIDTH 893 0
DWIDTH 32 0
BBX 29 29 2 -1
BITMAP
000F0000
00FFF000
01FFFC00
07FFFE00
0FE07F00
1F801F80
3F0007C0
3E0003C0
7C0003E0
780001E0
F80001F0
F00000F0
F00000F0
F00000F0
F00000F0
F00000F0
F00000F0
F007C0F0
F803E1F0
7801F1E0
7C00FBE0
3E007FC0
3F003FC0
1F801F80
0FF1FF80
07FFFFC0
01FFFBE0
007FE1F0
000600F8
ENDCHAR
STARTCHAR R
ENCODING 82
SWIDTH 602 0
DWIDTH 22 0
BBX 17 27 3 0
BITMAP
FFC000
FFF000
FFF800
FFFC00
F03E00
F01E00
F01E00
F01E00
F01E00
F01E00
F01E00
F03E00
FFFC00
FFF800
FFF000
FFC000
F3C000
F3E000
F1F000
F0F000
F0F800
F07C00
F03E00
F03E00
F01F00
F00F80
F00F80
ENDCHAR
STARTCHAR S
ENCODING 83
SWIDTH 583 0
DWIDTH 21 0
BBX 17 29 2 -1
BITMAP
01E000
07F800
1FFE00
3FFF00
3F1F00
7C0F00
780400
780000
780000
7C0000
3F0000
3FC000
1FF000
07FC00
01FE00
007F00
001F80
000F80
000780
000780
F00780
F00780
F80780
7C0F80
7F3F00
3FFE00
1FFC00
0FF800
008000
ENDCHAR
STARTCHAR T
ENCODING 84
SWIDTH 482 0
DWIDTH 17 0
BBX 17 27 0 0
BITMAP
FFFF80
FFFF80
FFFF80
FFFF80
01E000
01E000
01E000
01E000
01E000
01E000
01E000
01E000
01E000
01E000
01E000
01E000
01E000
01E000
01E000
01E000
01E000
01E000
01E000
01E000
01E000
01E000
01E000
ENDCHAR
STARTCHAR U
ENCODING 85
SWIDTH 738 0
DWIDTH 27 0
BBX 20 28 3 -1
BITMAP
F000F0
F000F0
F000F0
F000F0
F000F0
F000F0
F000F0
F000F0
F000F0
F000F0
F000F0
F000F0
F000F0
F000F0
F000F0
F000F0
F000F0
F000F0
F000F0
F800F0
7800F0
7C01F0
7E03E0
3F8FC0
1FFFC0
0FFF00
03FE00
002000
ENDCHAR
STARTCHAR V
ENCODING 86
SWIDTH 676 0
DWIDTH 24 0
BBX 24 28 0 -1
BITMAP
F8001F
78001F
7C001E
3C003E
3C003C
3E007C
1E0078
1F0078
0F00F8
0F00F0
0F81F0
0781E0
07C1E0
03C3E0
03C3C0
01E7C0
01E780
01F780
00FF00
00FF00
007F00
007E00
007E00
003C00
003C00
001C00
001800
001800
ENDCHAR
STARTCHAR W
ENCODING 87
SWIDTH 1060 0
DWIDTH 38 0
BBX 38 28 0 -1
BITMAP
F80030007C
7800300078
7C003000F8
3C007800F8
3C007800F0
3E00FC01F0
1E00FC01E0
1F00FC03E0
0F01FE03C0
0F01FE03C0
0F83FE07C0
0783CF0780
07C3CF0F80
03C78F0F00
03C7878F00
03E7879F00
01EF07DE00
01EF03FE00
00FF03FC00
00FE01FC00
00FE01F800
007C01F800
007C00F800
003C00F000
003800F000
0038006000
0018006000
0010004000
ENDCHAR
STARTCHAR X
ENCODING 88
SWIDTH 617 0
DWIDTH 22 0
BBX 21 27 1 0
BITMAP
7801F0
7C01E0
3E03E0
1E03C0
1F07C0
0F0F80
0F8F00
079F00
07DE00
03FE00
01FC00
01F800
00F800
00F800
01FC00
03FC00
03FE00
07DE00
0F9F00
0F8F00
1F0F80
1E07C0
3E03C0
7C03E0
7C01E0
F801F0
F000F8
ENDCHAR
STARTCHAR Y
ENCODING 89
SWIDTH 600 0
DWIDTH 22 0
BBX 21 27 0 0
BITMAP
F80078
7C00F8
7C01F0
3E01F0
1E03E0
1F03C0
0F07C0
0F8780
07CF80
07DF00
03FF00
01FE00
01FC00
00FC00
00F800
007800
007800
007800
007800
007800
007800
007800
007800
007800
007800
007800
007800
ENDCHAR
STARTCHAR Z
ENCODING 90
SWIDTH 625 0
DWIDTH 23 0
BBX 20 27 1 0
BITMAP
3FFFF0
3FFFE0
3FFFE0
3FFFC0
0007C0
000F80
000F00
001F00
001E00
003E00
003C00
007C00
00F800
00F000
01F000
01E000
03E000
03C000
07C000
0F8000
0F0000
1F0000
1E0000
3FFFF0
3FFFF0
7FFFF0
FFFFF0
ENDCHAR
STARTCHAR bracketleft
ENCODING 91
SWIDTH 357 0
DWIDTH 13 0
BBX 7 37 4 -7
BITMAP
FE
FE
FE
FE
F0
F0
F0
F0
F0
F0
F0
F0
F0
F0
F0
F0
F0
F0
F0
F0
F0
F0
F0
F0
F0
F0
F0
F0
F0
F0
F0
F0
F0
FE
FE
FE
FE
ENDCHAR
STARTCHAR backslash
ENCODING 92
SWIDTH 518 0
DWIDTH 19 0
BBX 19 37 0 -7
BITMAP
300000
F00000
700000
780000
780000
3C0000
3C0000
1E0000
1E0000
0E0000
0F0000
0F0000
078000
078000
03C000
03C000
01E000
01E000
00E000
00F000
00F000
007800
007800
003C00
003C00
001C00
001E00
001E00
000F00
000F00
000780
000780
000380
0003C0
0003C0
0001E0
0001C0
ENDCHAR
STARTCHAR bracketright
ENCODING 93
SWIDTH 357 0
DWIDTH 13 0
BBX 7 37 2 -7
BITMAP
FE
FE
FE
FE
1E
1E
1E
1E
1E
1E
1E
1E
1E
1E
1E
1E
1E
1E
1E
1E
1E
1E
1E
1E
1E
1E
1E
1E
1E
1E
1E
1E
1E
FE
FE
FE
FE
ENDCHAR
STARTCHAR asciicircum
ENCODING 94
SWIDTH 565 0
DWIDTH 20 0
BBX 19 13 1 14
BITMAP
03F000
03F800
07F800
0FFC00
0F3C00
1F1E00
1E1E00
3E0F00
3C0F80
7C0780
7807C0
F803C0
F003E0
ENDCHAR
STARTCHAR underscore
ENCODING 95
SWIDTH 565 0
DWIDTH 20 0
BBX 20 4 0 -6
BITMAP
FFFFF0
FFFFF0
FFFFF0
FFFFF0
ENDCHAR
STARTCHAR grave
ENCODING 96
SWIDTH 565 0
DWIDTH 20 0
BBX 8 7 4 20
BITMAP
70
F8
78
3C
1E
0F
06
ENDCHAR
STARTCHAR a
ENCODING 97
SWIDTH 599 0
DWIDTH 22 0
BBX 17 19 2 -1
BITMAP
018000
0FE780
3FFF80
3FFF80
7C1F80
F80F80
F00780
F00780
F00780
F00780
F00780
F00780
F00780
F80F80
7C1F80
3FFF80
1FFF80
0FE780
010000
ENDCHAR
STARTCHAR b
ENCODING 98
SWIDTH 599 0
DWIDTH 22 0
BBX 18 31 2 -1
BITMAP
F00000
F00000
F00000
F00000
F00000
F00000
F00000
F00000
F00000
F00000
F00000
F00000
F06000
F3FC00
F7FE00
FFFF00
FE1F80
FC0F80
F807C0
F003C0
F003C0
F003C0
F003C0
F003C0
F80780
FC0F80
FE1F80
FFFF00
F7FE00
F3FC00
004000
ENDCHAR
STARTCHAR c
ENCODING 99
SWIDTH 476 0
DWIDTH 17 0
BBX 14 19 2 -1
BITMAP
00C0
0FFC
1FFC
3FFC
7E1C
7804
F804
F000
F000
F000
F000
F000
F004
780C
7E1C
3FFC
1FFC
07F8
0080
ENDCHAR
STARTCHAR d
ENCODING 100
SWIDTH 599 0
DWIDTH 22 0
BBX 17 31 2 -1
BITMAP
000780
000780
000780
000780
000780
000780
000780
000780
000780
000780
000780
000780
018780
0FE780
3FFF80
3FFF80
7C1F80
F80F80
F00780
F00780
F00780
F00780
F00780
F00780
F00780
F80F80
7C1F80
3FFF80
1FFF80
0FF780
010000
ENDCHAR
STARTCHAR e
ENCODING 101
SWIDTH 553 0
DWIDTH 20 0
BBX 16 19 2 -1
BITMAP
0180
0FF0
3FFC
7FFC
7C3E
F81F
F00F
FFFF
FFFF
FFFF
F000
F000
F00C
F80F
7C3F
3FFE
3FFC
0FF0
0180
ENDCHAR
STARTCHAR f
ENCODING 102
SWIDTH 296 0
DWIDTH 11 0
BBX 10 30 1 0
BITMAP
0FC0
1FC0
3FC0
3FC0
3C00
3C00
3C00
3C00
3C00
3C00
3C00
3C00
3C00
FFC0
FFC0
FFC0
FFC0
3C00
3C00
3C00
3C00
3C00
3C00
3C00
3C00
3C00
3C00
3C00
3C00
3C00
ENDCHAR
STARTCHAR g
ENCODING 103
SWIDTH 598 0
DWIDTH 22 0
BBX 17 27 2 -9
BITMAP
038000
0FF780
3FFF80
3FFF80
7C1F80
F80F80
F00780
F00780
F00780
F00780
F00780
F00780
F00780
F80F80
7C1F80
3FFF80
3FFF80
0FE780
010780
000780
F00780
780780
780F00
7E3F00
3FFE00
1FFC00
07F800
ENDCHAR
STARTCHAR h
ENCODING 104
SWIDTH 548 0
DWIDTH 20 0
BBX 15 30 2 0
BITMAP
F000
F000
F000
F000
F000
F000
F000
F000
F000
F000
F000
F000
F040
F7F8
FFFC
FFFE
FC3E
F81E
F81E
F81E
F01E
F01E
F01E
F01E
F01E
F01E
F01E
F01E
F01E
F01E
ENDCHAR
STARTCHAR i
ENCODING 105
SWIDTH 249 0
DWIDTH 9 0
BBX 5 27 2 0
BITMAP
70
F8
F8
F8
70
00
00
00
00
00
F0
F0
F0
F0
F0
F0
F0
F0
F0
F0
F0
F0
F0
F0
F0
F0
F0
ENDCHAR
STARTCHAR j
ENCODING 106
SWIDTH 249 0
DWIDTH 9 0
BBX 5 36 2 -9
BITMAP
70
F8
F8
F8
70
00
00
00
00
00
F0
F0
F0
F0
F0
F0
F0
F0
F0
F0
F0
F0
F0
F0
F0
F0
F0
F0
F0
F0
F0
F0
F0
F0
F0
F0
ENDCHAR
STARTCHAR k
ENCODING 107
SWIDTH 498 0
DWIDTH 18 0
BBX 15 30 2 0
BITMAP
F000
F000
F000
F000
F000
F000
F000
F000
F000
F000
F000
F000
F000
F07E
F0FC
F1F8
F3F0
F7E0
FFC0
FF00
FF00
FF80
FFC0
F3E0
F3E0
F1F0
F0F8
F07C
F03E
F03E
ENDCHAR
STARTCHAR l
ENCODING 108
SWIDTH 249 0
DWIDTH 9 0
BBX 4 30 2 0
BITMAP
F0
F0
F0
F0
F0
F0
F0
F0
F0
F0
F0
F0
F0
F0
F0
F0
F0
F0
F0
F0
F0
F0
F0
F0
F0
F0
F0
F0
F0
F0
ENDCHAR
STARTCHAR m
ENCODING 109
SWIDTH 791 0
DWIDTH 28 0
BBX 24 18 2 0
BITMAP
008060
F7F1FC
FFFFFE
FFFFFE
FC7F1F
F83E0F
F83E0F
F83C0F
F03C0F
F03C0F
F03C0F
F03C0F
F03C0F
F03C0F
F03C0F
F03C0F
F03C0F
F03C0F
ENDCHAR
STARTCHAR n
ENCODING 110
SWIDTH 548 0
DWIDTH 20 0
BBX 15 18 2 0
BITMAP
00C0
F3F8
FFFC
FFFE
FC3E
F81E
F81E
F81E
F81E
F01E
F01E
F01E
F01E
F01E
F01E
F01E
F01E
F01E
ENDCHAR
STARTCHAR o
ENCODING 111
SWIDTH 601 0
DWIDTH 22 0
BBX 18 19 2 -1
BITMAP
00C000
0FF800
1FFE00
3FFF00
7C1F80
F80780
F00780
F003C0
F003C0
F003C0
F003C0
F003C0
F00780
780F80
7E1F00
3FFF00
1FFE00
0FF800
008000
ENDCHAR
STARTCHAR p
ENCODING 112
SWIDTH 599 0
DWIDTH 22 0
BBX 18 27 2 -9
BITMAP
006000
F3FC00
F7FE00
FFFF00
FE1F80
FC0F80
F80780
F003C0
F003C0
F003C0
F003C0
F003C0
F807C0
FC0F80
FE1F80
FFFF00
F7FE00
F3FC00
F04000
F00000
F00000
F00000
F00000
F00000
F00000
F00000
F00000
ENDCHAR
STARTCHAR q
ENCODING 113
SWIDTH 599 0
DWIDTH 22 0
BBX 17 27 2 -9
BITMAP
018000
0FF780
3FFF80
3FFF80
7C1F80
F80F80
F00780
F00780
F00780
F00780
F00780
F00780
F00780
F80F80
7C1F80
3FFF80
1FFF80
0FE780
010780
000780
000780
000780
000780
000780
000780
000780
000780
ENDCHAR
STARTCHAR r
ENCODING 114
SWIDTH 374 0
DWIDTH 13 0
BBX 12 18 2 0
BITMAP
0180
F7F0
FFE0
FFE0
FC40
F800
F800
F800
F000
F000
F000
F000
F000
F000
F000
F000
F000
F000
ENDCHAR
STARTCHAR s
ENCODING 115
SWIDTH 405 0
DWIDTH 15 0
BBX 13 19 1 -1
BITMAP
0600
1FC0
3FE0
3FE0
79C0
7800
7C00
3F00
3FC0
0FE0
03F0
01F0
00F8
30F8
F8F0
7FF0
3FE0
1FC0
0200
ENDCHAR
STARTCHAR t
ENCODING 116
SWIDTH 273 0
DWIDTH 10 0
BBX 9 23 1 0
BITMAP
3C00
3C00
3C00
3C00
3C00
3C00
FF80
FF80
FF80
FF80
3C00
3C00
3C00
3C00
3C00
3C00
3C00
3C00
3C00
3C00
3C00
3C00
3C00
ENDCHAR
STARTCHAR u
ENCODING 117
SWIDTH 544 0
DWIDTH 20 0
BBX 15 18 2 -1
BITMAP
F01E
F01E
F01E
F01E
F01E
F01E
F01E
F01E
F01E
F01E
F01E
781E
781E
7C3E
3FFC
3FF8
0FF0
0100
ENDCHAR
STARTCHAR v
ENCODING 118
SWIDTH 502 0
DWIDTH 18 0
BBX 18 17 0 0
BITMAP
F807C0
780780
7C0F80
3C0F00
3E1F00
1E1E00
1F3E00
0F3C00
0FFC00
07F800
07F800
03F000
03F000
01E000
01E000
00C000
00C000
ENDCHAR
STARTCHAR w
ENCODING 119
SWIDTH 773 0
DWIDTH 28 0
BBX 27 19 0 -1
BITMAP
00040000
F80601E0
780601E0
7C0F03C0
3C0F03C0
3E1F8780
1E1F8780
1F3F8F00
0F3FCF00
0FBBDF00
07F9FE00
07F9FE00
03F0FC00
03F0FC00
01E07800
01E07800
00C03000
00C03000
00002000
ENDCHAR
STARTCHAR x
ENCODING 120
SWIDTH 558 0
DWIDTH 20 0
BBX 19 17 1 0
BITMAP
7C0780
3E0F80
1E1F00
1F3E00
0FFC00
07F800
03F800
01F000
03F000
07F800
07FC00
0F3E00
1F1E00
3E1F00
7C0F80
F807C0
F003E0
ENDCHAR
STARTCHAR y
ENCODING 121
SWIDTH 543 0
DWIDTH 20 0
BBX 18 26 1 -9
BITMAP
F003C0
F807C0
780780
7C0F80
3C0F00
3E1E00
1E1E00
1F3C00
0F3C00
0FF800
07F800
03F000
03F000
01E000
01E000
03C000
07C000
078000
0F8000
0F0000
1F0000
1E0000
3E0000
3C0000
7C0000
780000
ENDCHAR
STARTCHAR z
ENCODING 122
SWIDTH 543 0
DWIDTH 20 0
BBX 18 17 1 0
BITMAP
3FFFC0
3FFF80
3FFF00
3FFE00
003C00
007C00
00F800
01F000
03E000
07C000
078000
0F8000
1F0000
3FFF80
7FFF80
7FFF80
FFFF80
ENDCHAR
STARTCHAR braceleft
ENCODING 123
SWIDTH 357 0
DWIDTH 13 0
BBX 9 37 2 -7
BITMAP
0F80
1F80
3F80
3F80
3C00
3C00
3C00
3C00
3C00
3C00
3C00
3C00
3C00
3C00
3C00
3C00
7C00
F800
F000
F800
F800
7C00
3C00
3C00
3C00
3C00
3C00
3C00
3C00
3C00
3C00
3C00
3C00
3E00
3F80
1F80
1F80
ENDCHAR
STARTCHAR bar
ENCODING 124
SWIDTH 565 0
DWIDTH 20 0
BBX 4 34 8 -7
BITMAP
F0
F0
F0
F0
F0
F0
F0
F0
F0
F0
F0
F0
F0
F0
F0
F0
F0
F0
F0
F0
F0
F0
F0
F0
F0
F0
F0
F0
F0
F0
F0
F0
F0
F0
ENDCHAR
STARTCHAR braceright
ENCODING 125
SWIDTH 357 0
DWIDTH 13 0
BBX 9 38 2 -8
BITMAP
F800
FC00
FC00
FE00
1E00
1E00
1E00
1E00
1E00
1E00
1E00
1E00
1E00
1E00
1E00
1E00
1F00
0F80
0780
0F80
1F80
1F00
1E00
1E00
1E00
1E00
1E00
1E00
1E00
1E00
1E00
1E00
1E00
3E00
FE00
FC00
F800
4000
ENDCHAR
STARTCHAR asciitilde
ENCODING 126
SWIDTH 753 0
DWIDTH 27 0
BBX 19 7 4 23
BITMAP
1F0060
3FC0E0
7FFFE0
7FFFC0
F1FF80
E03F00
400000
ENDCHAR
STARTCHAR nonbreakingspace
ENCODING 160
SWIDTH 308 0
DWIDTH 11 0
BBX 1 1 0 0
BITMAP
00
ENDCHAR
STARTCHAR exclamdown
ENCODING 161
SWIDTH 331 0
DWIDTH 12 0
BBX 4 27 4 -6
BITMAP
F0
F0
F0
F0
00
00
F0
F0
F0
F0
F0
F0
F0
F0
F0
F0
F0
F0
F0
F0
F0
F0
F0
F0
F0
F0
F0
ENDCHAR
STARTCHAR cent
ENCODING 162
SWIDTH 617 0
DWIDTH 22 0
BBX 14 25 3 1
BITMAP
01C0
01C0
01C0
01E0
07FC
1FFC
3FFC
3E1C
7C04
7800
F800
F000
F000
F000
F800
7800
7C04
3F1C
1FFC
0FFC
07FC
01C0
01C0
01C0
01C0
ENDCHAR
STARTCHAR sterling
ENCODING 163
SWIDTH 617 0
DWIDTH 22 0
BBX 20 28 1 0
BITMAP
003000
03FE00
07FF80
0FFFC0
1FC7C0
1F03E0
3E01E0
3C01E0
3C01F0
3C00E0
3C0000
3E0000
1E0000
1F0000
0F0000
FFF800
FFF800
078000
07C000
03C000
03C000
07C000
0F8040
3FE0F0
7FFFF0
FFFFF0
F8FFE0
701FC0
ENDCHAR
STARTCHAR currency
ENCODING 164
SWIDTH 617 0
DWIDTH 22 0
BBX 24 24 -1 3
BITMAP
200004
70000E
F83C1F
7DFFBE
3FFFFC
1FFFF8
0F81F0
1F00F8
1E0078
1C003C
3C003C
3C003C
3C003C
3C003C
1C003C
1E0078
1F00F8
0F81F0
1FFFF8
3FFFFC
7DFF9E
F87E0F
700006
200000
ENDCHAR
STARTCHAR yen
ENCODING 165
SWIDTH 617 0
DWIDTH 22 0
BBX 20 27 1 0
BITMAP
F800F0
7801F0
7C01E0
3C03E0
3E07C0
1E0780
1F0F80
0F0F00
0F9F00
FF9FF0
FFFFF0
FFFFF0
01FC00
01F800
00F000
FFFFF0
FFFFF0
FFFFF0
00F000
00F000
00F000
00F000
00F000
00F000
00F000
00F000
00F000
ENDCHAR
STARTCHAR brokenbar
ENCODING 166
SWIDTH 565 0
DWIDTH 20 0
BBX 4 34 8 -7
BITMAP
F0
F0
F0
F0
F0
F0
F0
F0
F0
F0
F0
F0
F0
F0
00
00
00
00
00
00
00
F0
F0
F0
F0
F0
F0
F0
F0
F0
F0
F0
F0
F0
ENDCHAR
STARTCHAR section
ENCODING 167
SWIDTH 617 0
DWIDTH 22 0
BBX 16 38 3 -8
BITMAP
03E0
0FF8
1FFC
3FFE
3C1F
780F
780F
780F
7800
7C00
3E00
1FC0
0FF0
1FFC
3FFE
7C1F
780F
F00F
F00F
F00F
F80F
781F
7F7E
3FFC
0FF8
03F8
00FC
003E
001E
001E
F01E
F01E
F81E
7C3E
7FFC
3FF8
0FF0
0180
ENDCHAR
STARTCHAR dieresis
ENCODING 168
SWIDTH 565 0
DWIDTH 20 0
BBX 12 5 4 20
BITMAP
70E0
F9F0
F9F0
F8F0
70E0
ENDCHAR
STARTCHAR copyright
ENCODING 169
SWIDTH 857 0
DWIDTH 31 0
BBX 29 29 1 -1
BITMAP
000F0000
007FF000
01F8FC00
07801E00
0F000700
1E000380
1C0FC1C0
383FF0E0
307FF060
70F03070
61E01030
61C00030
E3C00030
E3800030
E3800038
E3800030
E1C00030
61C00030
61E01030
70F03070
307FF060
383FF0E0
1C07C1C0
0E000380
07000700
03C01E00
01FFFC00
007FF000
00020000
ENDCHAR
STARTCHAR ordfeminine
ENCODING 170
SWIDTH 409 0
DWIDTH 15 0
BBX 11 11 2 16
BITMAP
1EE0
7FE0
F3E0
E1E0
C0E0
C0E0
C0E0
E0E0
F3E0
7FE0
1EE0
ENDCHAR
STARTCHAR guillemotleft
ENCODING 171
SWIDTH 575 0
DWIDTH 21 0
BBX 16 18 2 0
BITMAP
0200
0307
078F
0F0F
1E1E
3E3C
3C78
7878
F0F0
F1E0
78F0
7C78
3C3C
1E3E
0F1E
0F8F
0707
0202
ENDCHAR
STARTCHAR logicalnot
ENCODING 172
SWIDTH 565 0
DWIDTH 20 0
BBX 18 11 1 0
BITMAP
FFFFC0
FFFFC0
FFFFC0
FFFFC0
0003C0
0003C0
0003C0
0003C0
0003C0
0003C0
0003C0
ENDCHAR
STARTCHAR softhyphen
ENCODING 173
SWIDTH 217 0
DWIDTH 8 0
BBX 8 3 0 7
BITMAP
FF
FF
FF
ENDCHAR
STARTCHAR registered
ENCODING 174
SWIDTH 857 0
DWIDTH 31 0
BBX 29 29 1 -1
BITMAP
000F0000
007FF000
01F8FC00
07801E00
0F000700
1E000380
1C7E01C0
387FC0E0
307FE060
7071E070
6070E030
6070E030
E070E030
E077E030
E07FC038
E07F8030
E0770030
60738030
6073C030
7071E070
3070F060
387070E0
1C7079C0
0E000380
07000700
03C01E00
01FFFC00
007FF000
00020000
ENDCHAR
STARTCHAR macron
ENCODING 175
SWIDTH 565 0
DWIDTH 20 0
BBX 12 4 4 20
BITMAP
FFF0
FFF0
FFF0
FFF0
ENDCHAR
STARTCHAR degree
ENCODING 176
SWIDTH 641 0
DWIDTH 23 0
BBX 11 11 6 17
BITMAP
0400
3F80
7FC0
71C0
E0E0
E0E0
E0E0
E0E0
71C0
7FC0
1F00
ENDCHAR
STARTCHAR plusminus
ENCODING 177
SWIDTH 617 0
DWIDTH 22 0
BBX 18 23 2 0
BITMAP
01E000
01E000
01E000
01E000
01E000
01E000
01E000
FFFFC0
FFFFC0
FFFFC0
FFFFC0
01E000
01E000
01E000
01E000
01E000
01E000
01E000
000000
000000
FFFFC0
FFFFC0
FFFFC0
ENDCHAR
STARTCHAR twosuperior
ENCODING 178
SWIDTH 437 0
DWIDTH 16 0
BBX 11 16 2 11
BITMAP
3F80
7FC0
71C0
E0E0
E0E0
00E0
01C0
01C0
0380
0700
0F00
1E00
3C00
3800
7FE0
FFE0
ENDCHAR
STARTCHAR threesuperior
ENCODING 179
SWIDTH 437 0
DWIDTH 16 0
BBX 11 16 2 11
BITMAP
3F80
7FC0
71C0
E0C0
00C0
01C0
07C0
0780
07C0
01C0
00E0
00E0
E0E0
F1C0
7FC0
3F00
ENDCHAR
STARTCHAR acute
ENCODING 180
SWIDTH 565 0
DWIDTH 20 0
BBX 8 7 9 20
BITMAP
1C
1F
3E
7C
F8
E0
C0
ENDCHAR
STARTCHAR mu
ENCODING 181
SWIDTH 544 0
DWIDTH 20 0
BBX 15 26 2 -9
BITMAP
F01E
F01E
F01E
F01E
F01E
F01E
F01E
F01E
F01E
F01E
F01E
F81E
F81E
FC3E
FFFC
FFF8
FFF0
F100
F000
F000
F000
F000
F000
F000
F000
F000
ENDCHAR
STARTCHAR paragraph
ENCODING 182
SWIDTH 617 0
DWIDTH 22 0
BBX 20 31 1 -4
BITMAP
0FFFF0
3FFFE0
7FFFE0
FFFFC0
FFC780
FFC780
FFC780
FFC780
FFC780
FFC780
7FC780
7FC780
3FC780
03C780
03C780
03C780
03C780
03C780
03C780
03C780
03C780
03C780
03C780
03C780
03C780
03C780
03C780
03C780
03C780
03C780
03C780
ENDCHAR
STARTCHAR periodcentered
ENCODING 183
SWIDTH 308 0
DWIDTH 11 0
BBX 5 5 3 11
BITMAP
70
F8
F8
F8
70
ENDCHAR
STARTCHAR cedilla
ENCODING 184
SWIDTH 565 0
DWIDTH 20 0
BBX 7 7 7 -9
BITMAP
10
1E
3C
78
78
F0
20
ENDCHAR
STARTCHAR onesuperior
ENCODING 185
SWIDTH 437 0
DWIDTH 16 0
BBX 6 16 4 11
BITMAP
7C
FC
1C
1C
1C
1C
1C
1C
1C
1C
1C
1C
1C
1C
1C
1C
ENDCHAR
STARTCHAR ordmasculine
ENCODING 186
SWIDTH 410 0
DWIDTH 15 0
BBX 11 11 2 16
BITMAP
1F00
3F80
7BC0
E0E0
C0E0
C0E0
C0E0
E0E0
71C0
7F80
1F00
ENDCHAR
STARTCHAR guillemotright
ENCODING 187
SWIDTH 575 0
DWIDTH 21 0
BBX 17 17 2 0
BITMAP
706000
F0F000
787800
3C7800
1E3C00
1E1E00
0F0F00
078F80
078780
078F00
0F1E00
1E3E00
3C3C00
7C7800
78F000
70F000
202000
ENDCHAR
STARTCHAR onequarter
ENCODING 188
SWIDTH 967 0
DWIDTH 35 0
BBX 30 27 4 0
BITMAP
F8000C00
F8001C00
38003800
38003000
38007000
38006000
3800E000
3800C000
3801C000
38038000
38030010
38070030
38060030
380E0070
381C00F0
381C00F0
003801F0
003003F0
00700770
00600770
00E00E70
01C01C70
01801FFC
03803FFC
03007FFC
07000070
06000070
ENDCHAR
STARTCHAR onehalf
ENCODING 189
SWIDTH 967 0
DWIDTH 35 0
BBX 29 27 4 0
BITMAP
F8000C00
F8001C00
38003800
38003000
38007000
38006000
3800E000
3800C000
3801C000
38038000
38030100
38070FE0
38061FF0
380E3C70
381C3838
381C3838
00380038
00300070
007000F0
006000E0
00E001C0
01C00380
01800780
03800F00
03001FF8
07001FF8
06003FF8
ENDCHAR
STARTCHAR threequarters
ENCODING 190
SWIDTH 967 0
DWIDTH 35 0
BBX 33 27 1 0
BITMAP
3F80018000
7FC0038000
71C0070000
60E0060000
00E00E0000
00C00C0000
07C01C0000
0780180000
07C0380000
01C0700000
00E0600200
00E0E00600
E0E0C00600
F1C1C00E00
7FC3801E00
3F83003E00
0007003E00
0006007E00
000E00EE00
000C00EE00
001C01CE00
0038038E00
003003FF80
007007FF80
00600FFF80
00E0000E00
00C0000E00
ENDCHAR
STARTCHAR questiondown
ENCODING 191
SWIDTH 489 0
DWIDTH 18 0
BBX 13 28 2 -7
BITMAP
0780
0F80
0F80
0780
0000
0000
0300
1FC0
3FF0
3FF0
7CF8
7878
7878
00F8
03F8
0FF0
3FE0
7F80
7E00
F800
F078
F078
F078
78F8
7FF8
3FF0
1FE0
0700
ENDCHAR
STARTCHAR Agrave
ENCODING 192
SWIDTH 740 0
DWIDTH 27 0
BBX 26 37 0 0
BITMAP
00200000
00700000
01F80000
007C0000
003E0000
001F0000
00060000
00000000
00040000
00040000
000E0000
000E0000
000F0000
001F0000
001F0000
003F8000
003F8000
007BC000
007BC000
00FBE000
00F1E000
01F1F000
01E0F000
03E0F000
03C07800
07C07800
07807C00
07FFFC00
0FFFFE00
0FFFFE00
1F001F00
1E000F00
3E000F80
3C000780
7C000780
780007C0
F80003C0
ENDCHAR
STARTCHAR Aacute
ENCODING 193
SWIDTH 740 0
DWIDTH 27 0
BBX 26 37 0 0
BITMAP
00008000
0001C000
0003F000
0007C000
000F8000
001E0000
000C0000
00000000
00040000
00040000
000E0000
000E0000
000F0000
001F0000
001F0000
003F8000
003F8000
007BC000
007BC000
00FBE000
00F1E000
01F1F000
01E0F000
03E0F000
03C07800
07C07800
07807C00
07FFFC00
0FFFFE00
0FFFFE00
1F001F00
1E000F00
3E000F80
3C000780
7C000780
780007C0
F80003C0
ENDCHAR
STARTCHAR Acircumflex
ENCODING 194
SWIDTH 740 0
DWIDTH 27 0
BBX 26 37 0 0
BITMAP
00040000
000F0000
003F8000
007FC000
00FBE000
00F1F000
0060C000
00000000
00040000
00040000
000E0000
000E0000
000F0000
001F0000
001F0000
003F8000
003F8000
007BC000
007BC000
00FBE000
00F1E000
01F1F000
01E0F000
03E0F000
03C07800
07C07800
07807C00
07FFFC00
0FFFFE00
0FFFFE00
1F001F00
1E000F00
3E000F80
3C000780
7C000780
780007C0
F80003C0
ENDCHAR
STARTCHAR Atilde
ENCODING 195
SWIDTH 740 0
DWIDTH 27 0
BBX 26 35 0 0
BITMAP
00782000
00FE7800
01FFF000
01DFF000
0083C000
00000000
00040000
00040000
000E0000
000E0000
000F0000
001F0000
001F0000
003F8000
003F8000
007BC000
007BC000
00FBE000
00F1E000
01F1F000
01E0F000
03E0F000
03C07800
07C07800
07807C00
07FFFC00
0FFFFE00
0FFFFE00
1F001F00
1E000F00
3E000F80
3C000780
7C000780
780007C0
F80003C0
ENDCHAR
STARTCHAR Adieresis
ENCODING 196
SWIDTH 740 0
DWIDTH 27 0
BBX 26 35 0 0
BITMAP
00E0E000
01F1F000
01F1F000
01F1F000
00E0E000
00000000
00040000
00040000
000E0000
000E0000
000F0000
001F0000
001F0000
003F8000
003F8000
007BC000
007BC000
00FBE000
00F1E000
01F1F000
01E0F000
03E0F000
03C07800
07C07800
07807C00
07FFFC00
0FFFFE00
0FFFFE00
1F001F00
1E000F00
3E000F80
3C000780
7C000780
780007C0
F80003C0
ENDCHAR
STARTCHAR Aring
ENCODING 197
SWIDTH 740 0
DWIDTH 27 0
BBX 26 37 0 0
BITMAP
001F0000
003F8000
00318000
00318000
00318000
003F8000
001F0000
00000000
00040000
00040000
000E0000
000E0000
000F0000
001F0000
001F0000
003F8000
003F8000
007BC000
007BC000
00FBE000
00F1E000
01F1F000
01E0F000
03E0F000
03C07800
07C07800
07807C00
07FFFC00
0FFFFE00
0FFFFE00
1F001F00
1E000F00
3E000F80
3C000780
7C000780
780007C0
F80003C0
ENDCHAR
STARTCHAR AE
ENCODING 198
SWIDTH 1047 0
DWIDTH 38 0
BBX 36 27 1 0
BITMAP
000FFF8000
000FFF8000
001FFFC000
001FFFC000
003F000000
003F000000
007F800000
007F800000
00FF800000
00F3C00000
01F3FFF800
01E3FFF800
03E1FFFC00
03C1FFFC00
07C0F00000
0780F80000
0F80780000
0FFFF80000
1FFFFC0000
1FFFFC0000
1FFFFE0000
3C001E0000
3C001F0000
7C000FFFE0
78000FFFE0
F80007FFF0
F00007FFF0
ENDCHAR
STARTCHAR Ccedilla
ENCODING 199
SWIDTH 700 0
DWIDTH 25 0
BBX 21 37 2 -9
BITMAP
000F00
00FFF0
03FFF8
07FFF8
0FF0F8
1F8018
3F0008
3E0000
7C0000
780000
F80000
F00000
F00000
F00000
F00000
F00000
F00000
F00000
F80000
780000
7C0000
3E0000
3F0008
1F8018
0FF0F8
07FFF8
01FFF8
007FE0
000400
000000
000800
001E00
001E00
003C00
007800
007800
003000
ENDCHAR
STARTCHAR Egrave
ENCODING 200
SWIDTH 565 0
DWIDTH 20 0
BBX 15 37 3 0
BITMAP
0400
0E00
3F00
0F80
07C0
01E0
00E0
0000
0000
0000
FFFE
FFFE
FFFE
FFFE
F000
F000
F000
F000
F000
F000
FFFE
FFFE
FFFE
FFFE
F000
F000
F000
F000
F000
F000
F000
F000
F000
FFFE
FFFE
FFFE
FFFE
ENDCHAR
STARTCHAR Eacute
ENCODING 201
SWIDTH 565 0
DWIDTH 20 0
BBX 15 37 3 0
BITMAP
0020
0070
00FC
01F8
03E0
07C0
0300
0000
0000
0000
FFFE
FFFE
FFFE
FFFE
F000
F000
F000
F000
F000
F000
FFFE
FFFE
FFFE
FFFE
F000
F000
F000
F000
F000
F000
F000
F000
F000
FFFE
FFFE
FFFE
FFFE
ENDCHAR
STARTCHAR Ecircumflex
ENCODING 202
SWIDTH 565 0
DWIDTH 20 0
BBX 15 37 3 0
BITMAP
0180
03C0
07E0
0FF0
3EF8
3C7C
1838
0000
0000
0000
FFFE
FFFE
FFFE
FFFE
F000
F000
F000
F000
F000
F000
FFFE
FFFE
FFFE
FFFE
F000
F000
F000
F000
F000
F000
F000
F000
F000
FFFE
FFFE
FFFE
FFFE
ENDCHAR
STARTCHAR Edieresis
ENCODING 203
SWIDTH 565 0
DWIDTH 20 0
BBX 15 35 3 0
BITMAP
1838
3C3C
7C7C
3C7C
3C38
0000
0000
0000
FFFE
FFFE
FFFE
FFFE
F000
F000
F000
F000
F000
F000
FFFE
FFFE
FFFE
FFFE
F000
F000
F000
F000
F000
F000
F000
F000
F000
FFFE
FFFE
FFFE
FFFE
ENDCHAR
STARTCHAR Igrave
ENCODING 204
SWIDTH 294 0
DWIDTH 11 0
BBX 8 36 -1 0
BITMAP
70
F8
7C
3E
0F
07
00
00
00
0F
0F
0F
0F
0F
0F
0F
0F
0F
0F
0F
0F
0F
0F
0F
0F
0F
0F
0F
0F
0F
0F
0F
0F
0F
0F
0F
ENDCHAR
STARTCHAR Iacute
ENCODING 205
SWIDTH 294 0
DWIDTH 11 0
BBX 9 37 3 0
BITMAP
0400
0E00
1F80
3F00
7C00
F800
6000
0000
0000
0000
F000
F000
F000
F000
F000
F000
F000
F000
F000
F000
F000
F000
F000
F000
F000
F000
F000
F000
F000
F000
F000
F000
F000
F000
F000
F000
F000
ENDCHAR
STARTCHAR Icircumflex
ENCODING 206
SWIDTH 294 0
DWIDTH 11 0
BBX 12 37 -1 0
BITMAP
0600
0F00
1F80
3FE0
7DF0
F8F0
3060
0000
0000
0000
0F00
0F00
0F00
0F00
0F00
0F00
0F00
0F00
0F00
0F00
0F00
0F00
0F00
0F00
0F00
0F00
0F00
0F00
0F00
0F00
0F00
0F00
0F00
0F00
0F00
0F00
0F00
ENDCHAR
STARTCHAR Idieresis
ENCODING 207
SWIDTH 294 0
DWIDTH 11 0
BBX 12 35 -1 0
BITMAP
30E0
79F0
F9F0
79F0
78E0
0000
0000
0000
0F00
0F00
0F00
0F00
0F00
0F00
0F00
0F00
0F00
0F00
0F00
0F00
0F00
0F00
0F00
0F00
0F00
0F00
0F00
0F00
0F00
0F00
0F00
0F00
0F00
0F00
0F00
ENDCHAR
STARTCHAR Eth
ENCODING 208
SWIDTH 726 0
DWIDTH 26 0
BBX 23 27 1 0
BITMAP
3FFC00
3FFF00
3FFFC0
3FFFE0
3C07F0
3C01F8
3C00FC
3C007C
3C003C
3C003E
3C001E
FFF01E
FFF01E
FFF01E
FFF01E
3C001E
3C001E
3C003E
3C003C
3C007C
3C00F8
3C01F8
3C07F0
3FFFE0
3FFFC0
3FFF00
3FF800
ENDCHAR
STARTCHAR Ntilde
ENCODING 209
SWIDTH 844 0
DWIDTH 30 0
BBX 24 36 3 -1
BITMAP
01F040
03FDE0
07FFE0
07BFC0
030F80
000000
800000
C00000
E0000F
F0000F
F8000F
FC000F
FC000F
FE000F
FF000F
FF800F
F7C00F
F3E00F
F1F00F
F0F80F
F07C0F
F03E0F
F01F0F
F00F8F
F00FCF
F007EF
F003FF
F001FF
F000FF
F0007F
F0003F
F0001F
F0000F
F00007
F00003
000001
ENDCHAR
STARTCHAR Ograve
ENCODING 210
SWIDTH 893 0
DWIDTH 32 0
BBX 28 38 2 -1
BITMAP
00100000
00380000
00FC0000
003E0000
001F0000
00078000
00030000
00000000
00000000
000F0000
00FFF000
01FFFC00
07FFFE00
0FF07F00
1F801F80
3F0007C0
3E0003C0
7C0003E0
780001E0
F80001F0
F00000F0
F00000F0
F00000F0
F00000F0
F00000F0
F00000F0
F00000F0
F80001F0
780001E0
7C0003E0
3E0007C0
3F000FC0
1F801F80
0FF0FF00
07FFFE00
01FFF800
007FE000
00040000
ENDCHAR
STARTCHAR Oacute
ENCODING 211
SWIDTH 893 0
DWIDTH 32 0
BBX 28 38 2 -1
BITMAP
00008000
0001E000
0003F000
0007E000
000F8000
001F0000
000E0000
00000000
00000000
000F0000
00FFF000
01FFFC00
07FFFE00
0FF07F00
1F801F80
3F0007C0
3E0003C0
7C0003E0
780001E0
F80001F0
F00000F0
F00000F0
F00000F0
F00000F0
F00000F0
F00000F0
F00000F0
F80001F0
780001E0
7C0003E0
3E0007C0
3F000FC0
1F801F80
0FF0FF00
07FFFE00
01FFF800
007FE000
00040000
ENDCHAR
STARTCHAR Ocircumflex
ENCODING 212
SWIDTH 893 0
DWIDTH 32 0
BBX 28 38 2 -1
BITMAP
00060000
000F0000
001F8000
003FC000
007DF000
00F8F000
00706000
00000000
00000000
000F0000
00FFF000
01FFFC00
07FFFE00
0FF07F00
1F801F80
3F0007C0
3E0003C0
7C0003E0
780001E0
F80001F0
F00000F0
F00000F0
F00000F0
F00000F0
F00000F0
F00000F0
F00000F0
F80001F0
780001E0
7C0003E0
3E0007C0
3F000FC0
1F801F80
0FF0FF00
07FFFE00
01FFF800
007FE000
00040000
ENDCHAR
STARTCHAR Otilde
ENCODING 213
SWIDTH 893 0
DWIDTH 32 0
BBX 28 36 2 -1
BITMAP
00782000
00FF7800
01FFF000
01CFF000
0083C000
00000000
00000000
000F0000
00FFF000
01FFFC00
07FFFE00
0FF07F00
1F801F80
3F0007C0
3E0003C0
7C0003E0
780001E0
F80001F0
F00000F0
F00000F0
F00000F0
F00000F0
F00000F0
F00000F0
F00000F0
F80001F0
780001E0
7C0003E0
3E0007C0
3F000FC0
1F801F80
0FF0FF00
07FFFE00
01FFF800
007FE000
00040000
ENDCHAR
STARTCHAR Odieresis
ENCODING 214
SWIDTH 893 0
DWIDTH 32 0
BBX 28 36 2 -1
BITMAP
00706000
00F0F000
00F8F800
00F8F000
0070F000
00000000
00000000
000F0000
00FFF000
01FFFC00
07FFFE00
0FF07F00
1F801F80
3F0007C0
3E0003C0
7C0003E0
780001E0
F80001F0
F00000F0
F00000F0
F00000F0
F00000F0
F00000F0
F00000F0
F00000F0
F80001F0
780001E0
7C0003E0
3E0007C0
3F000FC0
1F801F80
0FF0FF00
07FFFE00
01FFF800
007FE000
00040000
ENDCHAR
STARTCHAR multiply
ENCODING 215
SWIDTH 617 0
DWIDTH 22 0
BBX 16 16 3 6
BITMAP
2006
700F
F81F
7C3E
3E7C
1FF8
0FF0
07E0
07E0
0FF0
1FF8
3E7C
7C3E
F81F
700E
2004
ENDCHAR
STARTCHAR Oslash
ENCODING 216
SWIDTH 892 0
DWIDTH 32 0
BBX 28 29 2 -1
BITMAP
00070040
00FFF0E0
01FFFDF0
07FFFFE0
0FF0FFC0
1F801F80
3F001FC0
3E003FC0
7C007FE0
7800F9E0
F801F1F0
F003E0F0
F007C0F0
F00F80F0
F01F00F0
F03E00F0
F07C00F0
F0F800F0
F9F001F0
7BE001E0
7FC003E0
3F8007C0
3F000FC0
3F801F80
7FF0FF00
FFFFFE00
F1FFF800
607FE000
00040000
ENDCHAR
STARTCHAR Ugrave
ENCODING 217
SWIDTH 738 0
DWIDTH 27 0
BBX 20 38 3 -1
BITMAP
010000
038000
0FC000
03E000
01F000
007800
003800
000000
000000
000000
F000F0
F000F0
F000F0
F000F0
F000F0
F000F0
F000F0
F000F0
F000F0
F000F0
F000F0
F000F0
F000F0
F000F0
F000F0
F000F0
F000F0
F000F0
F000F0
F800F0
7800F0
7C01F0
7E03E0
3F8FC0
1FFFC0
0FFF00
03FE00
002000
ENDCHAR
STARTCHAR Uacute
ENCODING 218
SWIDTH 738 0
DWIDTH 27 0
BBX 20 38 3 -1
BITMAP
000400
000E00
001F00
003E00
007C00
00F000
00E000
000000
000000
000000
F000F0
F000F0
F000F0
F000F0
F000F0
F000F0
F000F0
F000F0
F000F0
F000F0
F000F0
F000F0
F000F0
F000F0
F000F0
F000F0
F000F0
F000F0
F000F0
F800F0
7800F0
7C01F0
7E03E0
3F8FC0
1FFFC0
0FFF00
03FE00
002000
ENDCHAR
STARTCHAR Ucircumflex
ENCODING 219
SWIDTH 738 0
DWIDTH 27 0
BBX 20 38 3 -1
BITMAP
006000
00F000
01F800
03FC00
07DF00
0F8F00
030600
000000
000000
000000
F000F0
F000F0
F000F0
F000F0
F000F0
F000F0
F000F0
F000F0
F000F0
F000F0
F000F0
F000F0
F000F0
F000F0
F000F0
F000F0
F000F0
F000F0
F000F0
F800F0
7800F0
7C01F0
7E03E0
3F8FC0
1FFFC0
0FFF00
03FE00
002000
ENDCHAR
STARTCHAR Udieresis
ENCODING 220
SWIDTH 738 0
DWIDTH 27 0
BBX 20 36 3 -1
BITMAP
070700
0F8F00
0F8F80
0F8F80
070700
000000
000000
000000
F000F0
F000F0
F000F0
F000F0
F000F0
F000F0
F000F0
F000F0
F000F0
F000F0
F000F0
F000F0
F000F0
F000F0
F000F0
F000F0
F000F0
F000F0
F000F0
F800F0
7800F0
7C01F0
7E03E0
3F8FC0
1FFFC0
0FFF00
03FE00
002000
ENDCHAR
STARTCHAR Yacute
ENCODING 221
SWIDTH 600 0
DWIDTH 22 0
BBX 21 37 0 0
BITMAP
000200
000700
000FC0
001F80
003E00
007C00
003000
000000
000000
000000
F80078
7C00F8
7C01F0
3E01F0
1E03E0
1F03C0
0F07C0
0F8780
07CF80
07DF00
03FF00
01FE00
01FC00
00FC00
00F800
007800
007800
007800
007800
007800
007800
007800
007800
007800
007800
007800
007800
ENDCHAR
STARTCHAR Thorn
ENCODING 222
SWIDTH 540 0
DWIDTH 19 0
BBX 15 27 3 0
BITMAP
F000
F000
F000
F000
FFE0
FFF8
FFFC
F3FC
F03E
F01E
F01E
F00E
F01E
F01E
F01E
F07E
FFFC
FFF8
FFF0
FF80
F000
F000
F000
F000
F000
F000
F000
ENDCHAR
STARTCHAR germandbls
ENCODING 223
SWIDTH 622 0
DWIDTH 22 0
BBX 20 30 1 0
BITMAP
03F800
0FFE00
1FFF00
1FBF80
3E0780
3C0780
3C03C0
3C03C0
7C03C0
7C0780
780F80
787F00
787E00
F87F00
F87F80
F81FC0
7803E0
7801E0
7801E0
7800F0
7800F0
7800F0
7801F0
7801E0
7803E0
7807E0
781FC0
787F80
787F00
787C00
ENDCHAR
STARTCHAR agrave
ENCODING 224
SWIDTH 599 0
DWIDTH 22 0
BBX 17 28 2 -1
BITMAP
070000
1F0000
0F8000
07C000
01E000
00E000
006000
000000
000000
018000
0FE780
3FFF80
3FFF80
7C1F80
F80F80
F00780
F00780
F00780
F00780
F00780
F00780
F00780
F80F80
7C1F80
3FFF80
1FFF80
0FE780
010000
ENDCHAR
STARTCHAR aacute
ENCODING 225
SWIDTH 599 0
DWIDTH 22 0
BBX 17 28 2 -1
BITMAP
003800
003E00
007C00
00F800
01F000
01C000
018000
000000
000000
018000
0FE780
3FFF80
3FFF80
7C1F80
F80F80
F00780
F00780
F00780
F00780
F00780
F00780
F00780
F80F80
7C1F80
3FFF80
1FFF80
0FE780
010000
ENDCHAR
STARTCHAR acircumflex
ENCODING 226
SWIDTH 599 0
DWIDTH 22 0
BBX 17 28 2 -1
BITMAP
00C000
01E000
03F000
07F800
0F3E00
1E1E00
040C00
000000
000000
018000
0FE780
3FFF80
3FFF80
7C1F80
F80F80
F00780
F00780
F00780
F00780
F00780
F00780
F00780
F80F80
7C1F80
3FFF80
1FFF80
0FE780
010000
ENDCHAR
STARTCHAR atilde
ENCODING 227
SWIDTH 599 0
DWIDTH 22 0
BBX 17 26 2 -1
BITMAP
0F8600
1FFF00
3FFF00
39FE00
003C00
000000
000000
018000
0FE780
3FFF80
3FFF80
7C1F80
F80F80
F00780
F00780
F00780
F00780
F00780
F00780
F00780
F80F80
7C1F80
3FFF80
1FFF80
0FE780
010000
ENDCHAR
STARTCHAR adieresis
ENCODING 228
SWIDTH 599 0
DWIDTH 22 0
BBX 17 26 2 -1
BITMAP
0E1C00
1F3E00
1F3E00
1F3E00
0E1C00
000000
000000
018000
0FE780
3FFF80
3FFF80
7C1F80
F80F80
F00780
F00780
F00780
F00780
F00780
F00780
F00780
F80F80
7C1F80
3FFF80
1FFF80
0FE780
010000
ENDCHAR
STARTCHAR aring
ENCODING 229
SWIDTH 599 0
DWIDTH 22 0
BBX 17 28 2 -1
BITMAP
03E000
03F000
063800
061800
073800
03F000
01E000
000000
000000
018000
0FE780
3FFF80
3FFF80
7C1F80
F80F80
F00780
F00780
F00780
F00780
F00780
F00780
F00780
F80F80
7C1F80
3FFF80
1FFF80
0FE780
010000
ENDCHAR
STARTCHAR ae
ENCODING 230
SWIDTH 860 0
DWIDTH 31 0
BBX 27 19 2 -1
BITMAP
07803000
3FF1FE00
3FFFFF80
3FFFFFC0
207F87C0
003F03E0
001E01E0
1F9FFFE0
3FFFFFE0
7FFFFFE0
FCFE0000
F03E0000
F01E01C0
F03F01E0
F87F87E0
FFFFFFC0
7FF3FF80
3FE1FE00
00002000
ENDCHAR
STARTCHAR ccedilla
ENCODING 231
SWIDTH 476 0
DWIDTH 17 0
BBX 14 27 2 -9
BITMAP
00C0
0FFC
1FFC
3FFC
7E1C
7804
F804
F000
F000
F000
F000
F000
F004
780C
7E1C
3FFC
1FFC
07F8
0080
0000
0100
03E0
03C0
0780
0F00
0E00
0200
ENDCHAR
STARTCHAR egrave
ENCODING 232
SWIDTH 553 0
DWIDTH 20 0
BBX 16 28 2 -1
BITMAP
0E00
3F00
1F00
0780
03C0
01E0
00C0
0000
0000
0180
0FF0
3FFC
7FFC
7C3E
F81F
F00F
FFFF
FFFF
FFFF
F000
F000
F00C
F80F
7C3F
3FFE
3FFC
0FF0
0180
ENDCHAR
STARTCHAR eacute
ENCODING 233
SWIDTH 553 0
DWIDTH 20 0
BBX 16 28 2 -1
BITMAP
0070
007C
00F8
01F0
03E0
0380
0300
0000
0000
0180
0FF0
3FFC
7FFC
7C3E
F81F
F00F
FFFF
FFFF
FFFF
F000
F000
F00C
F80F
7C3F
3FFE
3FFC
0FF0
0180
ENDCHAR
STARTCHAR ecircumflex
ENCODING 234
SWIDTH 553 0
DWIDTH 20 0
BBX 16 28 2 -1
BITMAP
0180
03C0
07E0
0FF8
1E7C
3C3C
0818
0000
0000
0180
0FF0
3FFC
7FFC
7C3E
F81F
F00F
FFFF
FFFF
FFFF
F000
F000
F00C
F80F
7C3F
3FFE
3FFC
0FF0
0180
ENDCHAR
STARTCHAR edieresis
ENCODING 235
SWIDTH 553 0
DWIDTH 20 0
BBX 16 26 2 -1
BITMAP
1C38
3E7C
3E7C
3E7C
1C38
0000
0000
0180
0FF0
3FFC
7FFC
7C3E
F81F
F00F
FFFF
FFFF
FFFF
F000
F000
F00C
F80F
7C3F
3FFE
3FFC
0FF0
0180
ENDCHAR
STARTCHAR igrave
ENCODING 236
SWIDTH 249 0
DWIDTH 9 0
BBX 8 27 -2 0
BITMAP
38
F8
7C
3E
1E
0F
06
00
00
00
0F
0F
0F
0F
0F
0F
0F
0F
0F
0F
0F
0F
0F
0F
0F
0F
0F
ENDCHAR
STARTCHAR iacute
ENCODING 237
SWIDTH 249 0
DWIDTH 9 0
BBX 9 27 2 0
BITMAP
0E00
0F80
1F00
3E00
3C00
7800
3000
0000
0000
0000
F000
F000
F000
F000
F000
F000
F000
F000
F000
F000
F000
F000
F000
F000
F000
F000
F000
ENDCHAR
STARTCHAR icircumflex
ENCODING 238
SWIDTH 249 0
DWIDTH 9 0
BBX 11 27 -1 0
BITMAP
0E00
1F00
3F80
7FC0
FBE0
F1E0
60C0
0000
0000
0000
1E00
1E00
1E00
1E00
1E00
1E00
1E00
1E00
1E00
1E00
1E00
1E00
1E00
1E00
1E00
1E00
1E00
ENDCHAR
STARTCHAR idieresis
ENCODING 239
SWIDTH 249 0
DWIDTH 9 0
BBX 11 25 -1 0
BITMAP
71C0
FBE0
FBE0
FBE0
71C0
0000
0000
0000
1E00
1E00
1E00
1E00
1E00
1E00
1E00
1E00
1E00
1E00
1E00
1E00
1E00
1E00
1E00
1E00
1E00
ENDCHAR
STARTCHAR eth
ENCODING 240
SWIDTH 601 0
DWIDTH 22 0
BBX 18 31 2 -1
BITMAP
200000
783000
FEF800
3FF000
0FC000
1FE000
7DF000
38F000
207800
007C00
003E00
001E00
009F00
0FFF00
1FFF80
3FFF80
7E1F80
780FC0
F007C0
F003C0
F003C0
F003C0
F003C0
F003C0
F00780
780F80
7E1F00
3FFF00
1FFE00
0FF800
008000
ENDCHAR
STARTCHAR ntilde
ENCODING 241
SWIDTH 548 0
DWIDTH 20 0
BBX 15 25 2 0
BITMAP
1F0C
7FDE
7FFC
73F8
20F0
0000
0000
00C0
F3F8
FFFC
FFFE
FC3E
F81E
F81E
F81E
F81E
F01E
F01E
F01E
F01E
F01E
F01E
F01E
F01E
F01E
ENDCHAR
STARTCHAR ograve
ENCODING 242
SWIDTH 601 0
DWIDTH 22 0
BBX 18 28 2 -1
BITMAP
070000
1F0000
0F8000
07C000
01E000
00E000
006000
000000
000000
00C000
0FF800
1FFE00
3FFF00
7C1F80
F80780
F00780
F003C0
F003C0
F003C0
F003C0
F003C0
F00780
780F80
7E1F00
3FFF00
1FFE00
0FF800
008000
ENDCHAR
STARTCHAR oacute
ENCODING 243
SWIDTH 601 0
DWIDTH 22 0
BBX 18 28 2 -1
BITMAP
003800
003E00
007C00
00F000
01E000
03C000
018000
000000
000000
00C000
0FF800
1FFE00
3FFF00
7C1F80
F80780
F00780
F003C0
F003C0
F003C0
F003C0
F003C0
F00780
780F80
7E1F00
3FFF00
1FFE00
0FF800
008000
ENDCHAR
STARTCHAR ocircumflex
ENCODING 244
SWIDTH 601 0
DWIDTH 22 0
BBX 18 28 2 -1
BITMAP
00C000
01E000
07F000
0FF800
1F7C00
1E3E00
0C0800
000000
000000
00C000
0FF800
1FFE00
3FFF00
7C1F80
F80780
F00780
F003C0
F003C0
F003C0
F003C0
F003C0
F00780
780F80
7E1F00
3FFF00
1FFE00
0FF800
008000
ENDCHAR
STARTCHAR otilde
ENCODING 245
SWIDTH 601 0
DWIDTH 22 0
BBX 18 26 2 -1
BITMAP
0F8200
1FFF00
3FFF00
18FE00
083C00
000000
000000
00C000
0FF800
1FFE00
3FFF00
7C1F80
F80780
F00780
F003C0
F003C0
F003C0
F003C0
F003C0
F00780
780F80
7E1F00
3FFF00
1FFE00
0FF800
008000
ENDCHAR
STARTCHAR odieresis
ENCODING 246
SWIDTH 601 0
DWIDTH 22 0
BBX 18 26 2 -1
BITMAP
0E1C00
1E3E00
1F3E00
1E3E00
0E1C00
000000
000000
00C000
0FF800
1FFE00
3FFF00
7C1F80
F80780
F00780
F003C0
F003C0
F003C0
F003C0
F003C0
F00780
780F80
7E1F00
3FFF00
1FFE00
0FF800
008000
ENDCHAR
STARTCHAR divide
ENCODING 247
SWIDTH 617 0
DWIDTH 22 0
BBX 18 16 2 6
BITMAP
01E000
01E000
01E000
00E000
000000
000000
FFFFC0
FFFFC0
FFFFC0
FFFFC0
000000
000000
01E000
01E000
01E000
01E000
ENDCHAR
STARTCHAR oslash
ENCODING 248
SWIDTH 601 0
DWIDTH 22 0
BBX 19 19 1 -1
BITMAP
004060
07FCE0
0FFFC0
1FFF80
3F0F80
3C0FC0
781FC0
7839E0
7871E0
78E1E0
79C1E0
7B81E0
7F83C0
3F07C0
3F1F80
3FFF80
7FFF00
E7FC00
404000
ENDCHAR
STARTCHAR ugrave
ENCODING 249
SWIDTH 544 0
DWIDTH 20 0
BBX 15 28 2 -1
BITMAP
0C00
3E00
1F00
0F80
0780
03C0
01C0
0000
0000
0000
F01E
F01E
F01E
F01E
F01E
F01E
F01E
F01E
F01E
F01E
F01E
781E
781E
7C3E
3FFC
3FF8
0FF0
0100
ENDCHAR
STARTCHAR uacute
ENCODING 250
SWIDTH 544 0
DWIDTH 20 0
BBX 15 28 2 -1
BITMAP
0030
007C
00F8
01F0
01E0
03C0
0300
0000
0000
0000
F01E
F01E
F01E
F01E
F01E
F01E
F01E
F01E
F01E
F01E
F01E
781E
781E
7C3E
3FFC
3FF8
0FF0
0100
ENDCHAR
STARTCHAR ucircumflex
ENCODING 251
SWIDTH 544 0
DWIDTH 20 0
BBX 15 28 2 -1
BITMAP
0180
03C0
0FE0
1FF0
3EF8
3C7C
1810
0000
0000
0000
F01E
F01E
F01E
F01E
F01E
F01E
F01E
F01E
F01E
F01E
F01E
781E
781E
7C3E
3FFC
3FF8
0FF0
0100
ENDCHAR
STARTCHAR udieresis
ENCODING 252
SWIDTH 544 0
DWIDTH 20 0
BBX 15 26 2 -1
BITMAP
1C38
3C7C
3E7C
3C7C
1C38
0000
0000
0000
F01E
F01E
F01E
F01E
F01E
F01E
F01E
F01E
F01E
F01E
F01E
781E
781E
7C3E
3FFC
3FF8
0FF0
0100
ENDCHAR
STARTCHAR yacute
ENCODING 253
SWIDTH 543 0
DWIDTH 20 0
BBX 18 36 1 -9
BITMAP
001C00
003E00
003C00
007800
00F000
01E000
00C000
000000
000000
000000
F003C0
F807C0
780780
7C0F80
3C0F00
3E1E00
1E1E00
1F3C00
0F3C00
0FF800
07F800
03F000
03F000
01E000
01E000
03C000
07C000
078000
0F8000
0F0000
1F0000
1E0000
3E0000
3C0000
7C0000
780000
ENDCHAR
STARTCHAR thorn
ENCODING 254
SWIDTH 599 0
DWIDTH 22 0
BBX 18 39 2 -9
BITMAP
F00000
F00000
F00000
F00000
F00000
F00000
F00000
F00000
F00000
F00000
F00000
F00000
F06000
F3FC00
F7FE00
FFFF00
FE1F80
FC0F80
F80780
F003C0
F003C0
F003C0
F003C0
F003C0
F807C0
FC0F80
FE1F80
FFFF00
F7FE00
F3FC00
F04000
F00000
F00000
F00000
F00000
F00000
F00000
F00000
F00000
ENDCHAR
STARTCHAR ydieresis
ENCODING 255
SWIDTH 543 0
DWIDTH 20 0
BBX 18 34 1 -9
BITMAP
0E1C00
1E3E00
1F3E00
1E3E00
0E1C00
000000
000000
000000
F003C0
F807C0
780780
7C0F80
3C0F00
3E1E00
1E1E00
1F3C00
0F3C00
0FF800
07F800
03F000
03F000
01E000
01E000
03C000
07C000
078000
0F8000
0F0000
1F0000
1E0000
3E0000
3C0000
7C0000
780000
ENDCHAR
STARTCHAR Amacron
ENCODING 256
SWIDTH 740 0
DWIDTH 27 0
BBX 26 34 0 0
BITMAP
01FFF000
01FFF000
01FFF000
01FFF000
00000000
00040000
00040000
000E0000
000E0000
000F0000
001F0000
001F0000
003F8000
003F8000
007BC000
007BC000
00FBE000
00F1E000
01F1F000
01E0F000
03E0F000
03C07800
07C07800
07807C00
07FFFC00
0FFFFE00
0FFFFE00
1F001F00
1E000F00
3E000F80
3C000780
7C000780
780007C0
F80003C0
ENDCHAR
STARTCHAR amacron
ENCODING 257
SWIDTH 599 0
DWIDTH 22 0
BBX 17 25 2 -1
BITMAP
1FFE00
1FFE00
1FFE00
1FFE00
000000
000000
018000
0FE780
3FFF80
3FFF80
7C1F80
F80F80
F00780
F00780
F00780
F00780
F00780
F00780
F00780
F80F80
7C1F80
3FFF80
1FFF80
0FE780
010000
ENDCHAR
STARTCHAR Abreve
ENCODING 258
SWIDTH 740 0
DWIDTH 27 0
BBX 26 36 0 0
BITMAP
01C0F000
01E0F000
00E0E000
00FFE000
007FC000
003F8000
00000000
00040000
00040000
000E0000
000E0000
000F0000
001F0000
001F0000
003F8000
003F8000
007BC000
007BC000
00FBE000
00F1E000
01F1F000
01E0F000
03E0F000
03C07800
07C07800
07807C00
07FFFC00
0FFFFE00
0FFFFE00
1F001F00
1E000F00
3E000F80
3C000780
7C000780
780007C0
F80003C0
ENDCHAR
STARTCHAR abreve
ENCODING 259
SWIDTH 599 0
DWIDTH 22 0
BBX 17 27 2 -1
BITMAP
1C0E00
1C0E00
1E1E00
0FFC00
0FFC00
03F000
000000
000000
018000
0FE780
3FFF80
3FFF80
7C1F80
F80F80
F00780
F00780
F00780
F00780
F00780
F00780
F00780
F80F80
7C1F80
3FFF80
1FFF80
0FE780
010000
ENDCHAR
STARTCHAR Aogonek
ENCODING 260
SWIDTH 740 0
DWIDTH 27 0
BBX 26 38 0 -9
BITMAP
00040000
00040000
000E0000
000E0000
000F0000
001F0000
001F0000
003F8000
003F8000
007BC000
007BC000
00FBE000
00F1E000
01F1F000
01E0F000
03E0F000
03C07800
07C07800
07807C00
07FFFC00
0FFFFE00
0FFFFE00
1F001F00
1E000F00
3E000F80
3C000780
7C000780
780007C0
F80003C0
00000780
00000F00
00001E00
00001C00
00001C00
00001FC0
00001FC0
00000FC0
00000780
ENDCHAR
STARTCHAR aogonek
ENCODING 261
SWIDTH 599 0
DWIDTH 22 0
BBX 17 27 2 -9
BITMAP
018000
0FE780
3FFF80
3FFF80
7C1F80
F80F80
F00780
F00780
F00780
F00780
F00780
F00780
F00780
F80F80
7C1F80
3FFF80
1FFF80
0FE780
010F00
001E00
003C00
003800
003800
003F80
003F80
001F80
000F00
ENDCHAR
STARTCHAR Cacute
ENCODING 262
SWIDTH 700 0
DWIDTH 25 0
BBX 21 38 2 -1
BITMAP
000080
0001C0
0003E0
0007C0
000F80
001E00
001C00
000000
000000
000F00
00FFF0
03FFF8
07FFF8
0FF0F8
1F8018
3F0008
3E0000
7C0000
780000
F80000
F00000
F00000
F00000
F00000
F00000
F00000
F00000
F80000
780000
7C0000
3E0000
3F0008
1F8018
0FF0F8
07FFF8
01FFF8
007FE0
000400
ENDCHAR
STARTCHAR cacute
ENCODING 263
SWIDTH 476 0
DWIDTH 17 0
BBX 14 28 2 -1
BITMAP
0070
007C
00F8
01F0
03E0
03C0
0300
0000
0000
00C0
0FFC
1FFC
3FFC
7E1C
7804
F804
F000
F000
F000
F000
F000
F004
780C
7E1C
3FFC
1FFC
07F8
0080
ENDCHAR
STARTCHAR Ccircumflex
ENCODING 264
SWIDTH 700 0
DWIDTH 25 0
BBX 21 38 2 -1
BITMAP
000C00
001E00
003F00
007FC0
00FBE0
01E1E0
0040C0
000000
000000
000F00
00FFF0
03FFF8
07FFF8
0FF0F8
1F8018
3F0008
3E0000
7C0000
780000
F80000
F00000
F00000
F00000
F00000
F00000
F00000
F00000
F80000
780000
7C0000
3E0000
3F0008
1F8018
0FF0F8
07FFF8
01FFF8
007FE0
000400
ENDCHAR
STARTCHAR ccircumflex
ENCODING 265
SWIDTH 476 0
DWIDTH 17 0
BBX 14 28 2 -1
BITMAP
0180
03C0
07E0
0FF8
1F7C
3C3C
0818
0000
0000
00C0
0FFC
1FFC
3FFC
7E1C
7804
F804
F000
F000
F000
F000
F000
F004
780C
7E1C
3FFC
1FFC
07F8
0080
ENDCHAR
STARTCHAR Cdotaccent
ENCODING 266
SWIDTH 700 0
DWIDTH 25 0
BBX 21 36 2 -1
BITMAP
000F00
001F00
001F00
001F00
000E00
000000
000000
000F00
00FFF0
03FFF8
07FFF8
0FF0F8
1F8018
3F0008
3E0000
7C0000
780000
F80000
F00000
F00000
F00000
F00000
F00000
F00000
F00000
F80000
780000
7C0000
3E0000
3F0008
1F8018
0FF0F8
07FFF8
01FFF8
007FE0
000400
ENDCHAR
STARTCHAR cdotaccent
ENCODING 267
SWIDTH 476 0
DWIDTH 17 0
BBX 14 26 2 -1
BITMAP
03C0
03E0
03E0
03E0
01C0
0000
0000
00C0
0FFC
1FFC
3FFC
7E1C
7804
F804
F000
F000
F000
F000
F000
F004
780C
7E1C
3FFC
1FFC
07F8
0080
ENDCHAR
STARTCHAR Ccaron
ENCODING 268
SWIDTH 700 0
DWIDTH 25 0
BBX 21 38 2 -1
BITMAP
0060C0
00F1E0
00FBE0
007FC0
003F80
000F00
000600
000000
000000
000F00
00FFF0
03FFF8
07FFF8
0FF0F8
1F8018
3F0008
3E0000
7C0000
780000
F80000
F00000
F00000
F00000
F00000
F00000
F00000
F00000
F80000
780000
7C0000
3E0000
3F0008
1F8018
0FF0F8
07FFF8
01FFF8
007FE0
000400
ENDCHAR
STARTCHAR ccaron
ENCODING 269
SWIDTH 476 0
DWIDTH 17 0
BBX 14 28 2 -1
BITMAP
1C38
3E7C
1FF8
0FF0
07E0
03C0
0180
0000
0000
00C0
0FFC
1FFC
3FFC
7E1C
7804
F804
F000
F000
F000
F000
F000
F004
780C
7E1C
3FFC
1FFC
07F8
0080
ENDCHAR
STARTCHAR Dcaron
ENCODING 270
SWIDTH 726 0
DWIDTH 26 0
BBX 21 37 3 0
BITMAP
183000
3C7C00
3EF800
1FF000
0FE000
03C000
018000
000000
000000
000000
FFF000
FFFC00
FFFF00
FFFF80
F01FC0
F007E0
F003F0
F001F0
F000F0
F000F8
F00078
F00078
F00078
F00078
F00078
F00078
F00078
F000F8
F000F0
F001F0
F003E0
F007E0
F01FC0
FFFF80
FFFF00
FFFC00
FFE000
ENDCHAR
STARTCHAR dcaron
ENCODING 271
SWIDTH 708 0
DWIDTH 25 0
BBX 23 31 2 -1
BITMAP
000780
000780
000780
00079E
00079E
00079E
00079E
00078E
00078E
00078E
00078C
000784
018780
0FE780
3FFF80
3FFF80
7C1F80
F80F80
F00780
F00780
F00780
F00780
F00780
F00780
F00780
F80F80
7C1F80
3FFF80
1FFF80
0FF780
010000
ENDCHAR
STARTCHAR Dcroat
ENCODING 272
SWIDTH 726 0
DWIDTH 26 0
BBX 23 27 1 0
BITMAP
3FFC00
3FFF00
3FFFC0
3FFFE0
3C07F0
3C01F8
3C00FC
3C007C
3C003C
3C003E
3C001E
FFF01E
FFF01E
FFF01E
FFF01E
3C001E
3C001E
3C003E
3C003C
3C007C
3C00F8
3C01F8
3C07F0
3FFFE0
3FFFC0
3FFF00
3FF800
ENDCHAR
STARTCHAR dcroat
ENCODING 273
SWIDTH 599 0
DWIDTH 22 0
BBX 20 31 2 -1
BITMAP
000780
000780
000780
000780
000780
000780
007FF0
007FF0
007FF0
000780
000780
000780
018780
0FE780
3FFF80
3FFF80
7C1F80
F80F80
F00780
F00780
F00780
F00780
F00780
F00780
F00780
F80F80
7C1F80
3FFF80
1FFF80
0FF780
010000
ENDCHAR
STARTCHAR Emacron
ENCODING 274
SWIDTH 565 0
DWIDTH 20 0
BBX 15 34 3 0
BITMAP
7FFC
7FFC
7FFC
7FFC
0000
0000
0000
FFFE
FFFE
FFFE
FFFE
F000
F000
F000
F000
F000
F000
FFFE
FFFE
FFFE
FFFE
F000
F000
F000
F000
F000
F000
F000
F000
F000
FFFE
FFFE
FFFE
FFFE
ENDCHAR
STARTCHAR emacron
ENCODING 275
SWIDTH 553 0
DWIDTH 20 0
BBX 16 25 2 -1
BITMAP
3FFC
3FFC
3FFC
3FFC
0000
0000
0180
0FF0
3FFC
7FFC
7C3E
F81F
F00F
FFFF
FFFF
FFFF
F000
F000
F00C
F80F
7C3F
3FFE
3FFC
0FF0
0180
ENDCHAR
STARTCHAR Ebreve
ENCODING 276
SWIDTH 565 0
DWIDTH 20 0
BBX 15 36 3 0
BITMAP
781C
383C
3C3C
3FF8
1FF0
07E0
0000
0000
0000
FFFE
FFFE
FFFE
FFFE
F000
F000
F000
F000
F000
F000
FFFE
FFFE
FFFE
FFFE
F000
F000
F000
F000
F000
F000
F000
F000
F000
FFFE
FFFE
FFFE
FFFE
ENDCHAR
STARTCHAR ebreve
ENCODING 277
SWIDTH 553 0
DWIDTH 20 0
BBX 16 27 2 -1
BITMAP
381C
381C
3C3C
1FFC
0FF8
07F0
0000
0000
0180
0FF0
3FFC
7FFC
7C3E
F81F
F00F
FFFF
FFFF
FFFF
F000
F000
F00C
F80F
7C3F
3FFE
3FFC
0FF0
0180
ENDCHAR
STARTCHAR Edotaccent
ENCODING 278
SWIDTH 565 0
DWIDTH 20 0
BBX 15 35 3 0
BITMAP
03C0
07C0
07C0
07C0
0380
0000
0000
0000
FFFE
FFFE
FFFE
FFFE
F000
F000
F000
F000
F000
F000
FFFE
FFFE
FFFE
FFFE
F000
F000
F000
F000
F000
F000
F000
F000
F000
FFFE
FFFE
FFFE
FFFE
ENDCHAR
STARTCHAR edotaccent
ENCODING 279
SWIDTH 553 0
DWIDTH 20 0
BBX 16 26 2 -1
BITMAP
03C0
03E0
07E0
03C0
01C0
0000
0000
0180
0FF0
3FFC
7FFC
7C3E
F81F
F00F
FFFF
FFFF
FFFF
F000
F000
F00C
F80F
7C3F
3FFE
3FFC
0FF0
0180
ENDCHAR
STARTCHAR Eogonek
ENCODING 280
SWIDTH 565 0
DWIDTH 20 0
BBX 16 36 3 -9
BITMAP
FFFE
FFFE
FFFE
FFFE
F000
F000
F000
F000
F000
F000
FFFE
FFFE
FFFE
FFFE
F000
F000
F000
F000
F000
F000
F000
F000
F000
FFFE
FFFE
FFFE
FFFE
001E
0038
0070
00F0
00F0
00FF
007F
007F
001E
ENDCHAR
STARTCHAR eogonek
ENCODING 281
SWIDTH 553 0
DWIDTH 20 0
BBX 16 27 2 -9
BITMAP
0180
0FF0
3FFC
7FFC
7C3E
F81F
F00F
FFFF
FFFF
FFFF
F000
F000
F00C
F80F
7C3F
3FFE
3FFC
0FF0
01E0
0380
0700
0700
0F00
0FF0
07F0
07F0
01E0
ENDCHAR
STARTCHAR Ecaron
ENCODING 282
SWIDTH 565 0
DWIDTH 20 0
BBX 15 37 3 0
BITMAP
1830
3C78
3EF8
1FF0
0FE0
07C0
0180
0000
0000
0000
FFFE
FFFE
FFFE
FFFE
F000
F000
F000
F000
F000
F000
FFFE
FFFE
FFFE
FFFE
F000
F000
F000
F000
F000
F000
F000
F000
F000
FFFE
FFFE
FFFE
FFFE
ENDCHAR
STARTCHAR ecaron
ENCODING 283
SWIDTH 553 0
DWIDTH 20 0
BBX 16 28 2 -1
BITMAP
1C18
3E3C
1F78
0FF0
07E0
03C0
0180
0000
0000
0180
0FF0
3FFC
7FFC
7C3E
F81F
F00F
FFFF
FFFF
FFFF
F000
F000
F00C
F80F
7C3F
3FFE
3FFC
0FF0
0180
ENDCHAR
STARTCHAR Gcircumflex
ENCODING 284
SWIDTH 842 0
DWIDTH 30 0
BBX 26 37 2 0
BITMAP
00060000
000F0000
001F8000
003FC000
0079F000
00F0F000
00206000
00000000
00000000
000F0000
00FFF000
03FFFC00
07FFFE00
0FF0FF00
1F801F80
3F000F80
3E000700
7C000000
78000000
F8000000
F0000000
F0000000
F0000000
F001FFC0
F001FFC0
F001FFC0
F001FFC0
F80003C0
780003C0
7C0007C0
3E000F80
3F001F80
1F803F00
0FF1FE00
07FFFC00
01FFF800
00FFE000
ENDCHAR
STARTCHAR gcircumflex
ENCODING 285
SWIDTH 598 0
DWIDTH 22 0
BBX 17 36 2 -9
BITMAP
018000
03C000
07E000
0FF800
1F7C00
3C3C00
081800
000000
000000
038000
0FF780
3FFF80
3FFF80
7C1F80
F80F80
F00780
F00780
F00780
F00780
F00780
F00780
F00780
F80F80
7C1F80
3FFF80
3FFF80
0FE780
010780
000780
F00780
780780
780F00
7E3F00
3FFE00
1FFC00
07F800
ENDCHAR
STARTCHAR Gbreve
ENCODING 286
SWIDTH 842 0
DWIDTH 30 0
BBX 26 36 2 0
BITMAP
01E07000
00E0F000
00F0F000
00FFE000
007FC000
003F8000
00000000
00000000
000F0000
00FFF000
03FFFC00
07FFFE00
0FF0FF00
1F801F80
3F000F80
3E000700
7C000000
78000000
F8000000
F0000000
F0000000
F0000000
F001FFC0
F001FFC0
F001FFC0
F001FFC0
F80003C0
780003C0
7C0007C0
3E000F80
3F001F80
1F803F00
0FF1FE00
07FFFC00
01FFF800
00FFE000
ENDCHAR
STARTCHAR gbreve
ENCODING 287
SWIDTH 598 0
DWIDTH 22 0
BBX 17 35 2 -9
BITMAP
3C0E00
3C1E00
1E1C00
1FFC00
0FF800
07F000
000000
000000
038000
0FF780
3FFF80
3FFF80
7C1F80
F80F80
F00780
F00780
F00780
F00780
F00780
F00780
F00780
F80F80
7C1F80
3FFF80
3FFF80
0FE780
010780
000780
F00780
780780
780F00
7E3F00
3FFE00
1FFC00
07F800
ENDCHAR
STARTCHAR Gdotaccent
ENCODING 288
SWIDTH 842 0
DWIDTH 30 0
BBX 26 35 2 0
BITMAP
000F0000
001F0000
001F8000
000F0000
000E0000
00000000
00000000
000F0000
00FFF000
03FFFC00
07FFFE00
0FF0FF00
1F801F80
3F000F80
3E000700
7C000000
78000000
F8000000
F0000000
F0000000
F0000000
F001FFC0
F001FFC0
F001FFC0
F001FFC0
F80003C0
780003C0
7C0007C0
3E000F80
3F001F80
1F803F00
0FF1FE00
07FFFC00
01FFF800
00FFE000
ENDCHAR
STARTCHAR gdotaccent
ENCODING 289
SWIDTH 598 0
DWIDTH 22 0
BBX 17 34 2 -9
BITMAP
03C000
03E000
03E000
03E000
01C000
000000
000000
038000
0FF780
3FFF80
3FFF80
7C1F80
F80F80
F00780
F00780
F00780
F00780
F00780
F00780
F00780
F80F80
7C1F80
3FFF80
3FFF80
0FE780
010780
000780
F00780
780780
780F00
7E3F00
3FFE00
1FFC00
07F800
ENDCHAR
STARTCHAR Gcedilla
ENCODING 290
SWIDTH 842 0
DWIDTH 30 0
BBX 26 38 2 -10
BITMAP
000F0000
00FFF000
03FFFC00
07FFFE00
0FF0FF00
1F801F80
3F000F80
3E000700
7C000000
78000000
F8000000
F0000000
F0000000
F0000000
F001FFC0
F001FFC0
F001FFC0
F001FFC0
F80003C0
780003C0
7C0007C0
3E000F80
3F001F80
1F803F00
0FF1FE00
07FFFC00
01FFF800
00FFE000
00000000
00000000
000F0000
000F0000
000F0000
000F0000
00030000
00070000
00070000
00060000
ENDCHAR
STARTCHAR gcedilla
ENCODING 291
SWIDTH 598 0
DWIDTH 22 0
BBX 17 37 2 -9
BITMAP
01C000
01C000
018000
018000
01E000
01E000
01E000
01E000
000000
000000
038000
0FF780
3FFF80
3FFF80
7C1F80
F80F80
F00780
F00780
F00780
F00780
F00780
F00780
F00780
F80F80
7C1F80
3FFF80
3FFF80
0FE780
010780
000780
F00780
780780
780F00
7E3F00
3FFE00
1FFC00
07F800
ENDCHAR
STARTCHAR Hcircumflex
ENCODING 292
SWIDTH 733 0
DWIDTH 26 0
BBX 20 37 3 0
BITMAP
007000
00F800
01FC00
03FE00
07DF00
078F00
030600
000000
000000
000000
F000F0
F000F0
F000F0
F000F0
F000F0
F000F0
F000F0
F000F0
F000F0
F000F0
FFFFF0
FFFFF0
FFFFF0
FFFFF0
F000F0
F000F0
F000F0
F000F0
F000F0
F000F0
F000F0
F000F0
F000F0
F000F0
F000F0
F000F0
F000F0
ENDCHAR
STARTCHAR hcircumflex
ENCODING 293
SWIDTH 548 0
DWIDTH 20 0
BBX 18 37 -1 0
BITMAP
0E0000
1F0000
3F8000
7FC000
FBE000
F1E000
60C000
1E0000
1E0000
1E0000
1E0000
1E0000
1E0000
1E0000
1E0000
1E0000
1E0000
1E0000
1E0000
1E0800
1EFF00
1FFF80
1FFFC0
1F87C0
1F03C0
1F03C0
1F03C0
1E03C0
1E03C0
1E03C0
1E03C0
1E03C0
1E03C0
1E03C0
1E03C0
1E03C0
1E03C0
ENDCHAR
STARTCHAR Hbar
ENCODING 294
SWIDTH 848 0
DWIDTH 31 0
BBX 31 27 0 0
BITMAP
07800780
07800780
07800780
FFFFFFFE
FFFFFFFE
FFFFFFFE
FFFFFFFE
07800780
07800780
07800780
07FFFF80
07FFFF80
07FFFF80
07FFFF80
07800780
07800780
07800780
07800780
07800780
07800780
07800780
07800780
07800780
07800780
07800780
07800780
07800780
ENDCHAR
STARTCHAR hbar
ENCODING 295
SWIDTH 548 0
DWIDTH 20 0
BBX 16 30 1 0
BITMAP
7800
7800
7800
7800
7800
7800
7800
FE00
FE00
FE00
7800
7800
7820
7BFC
7FFE
7FFF
7E1F
7C0F
7C0F
7C0F
780F
780F
780F
780F
780F
780F
780F
780F
780F
780F
ENDCHAR
STARTCHAR Itilde
ENCODING 296
SWIDTH 403 0
DWIDTH 15 0
BBX 14 35 0 0
BITMAP
3E08
7FFC
FFFC
73F8
20F0
0000
0000
0000
0780
0780
0780
0780
0780
0780
0780
0780
0780
0780
0780
0780
0780
0780
0780
0780
0780
0780
0780
0780
0780
0780
0780
0780
0780
0780
0780
ENDCHAR
STARTCHAR itilde
ENCODING 297
SWIDTH 396 0
DWIDTH 14 0
BBX 14 25 0 0
BITMAP
3E08
7FFC
FFFC
E3F8
20F0
0000
0000
0000
0780
0780
0780
0780
0780
0780
0780
0780
0780
0780
0780
0780
0780
0780
0780
0780
0780
ENDCHAR
STARTCHAR Imacron
ENCODING 298
SWIDTH 294 0
DWIDTH 11 0
BBX 11 34 0 0
BITMAP
FFE0
FFE0
FFE0
FFE0
0000
0000
0000
1E00
1E00
1E00
1E00
1E00
1E00
1E00
1E00
1E00
1E00
1E00
1E00
1E00
1E00
1E00
1E00
1E00
1E00
1E00
1E00
1E00
1E00
1E00
1E00
1E00
1E00
1E00
ENDCHAR
STARTCHAR imacron
ENCODING 299
SWIDTH 249 0
DWIDTH 9 0
BBX 9 24 0 0
BITMAP
FF80
FF80
FF80
FF80
0000
0000
0000
3C00
3C00
3C00
3C00
3C00
3C00
3C00
3C00
3C00
3C00
3C00
3C00
3C00
3C00
3C00
3C00
3C00
ENDCHAR
STARTCHAR Ibreve
ENCODING 300
SWIDTH 352 0
DWIDTH 13 0
BBX 13 36 0 0
BITMAP
E078
F070
F0F0
7FF0
3FE0
1F80
0000
0000
0000
0F00
0F00
0F00
0F00
0F00
0F00
0F00
0F00
0F00
0F00
0F00
0F00
0F00
0F00
0F00
0F00
0F00
0F00
0F00
0F00
0F00
0F00
0F00
0F00
0F00
0F00
0F00
ENDCHAR
STARTCHAR ibreve
ENCODING 301
SWIDTH 349 0
DWIDTH 13 0
BBX 13 26 0 0
BITMAP
E078
F070
F0F0
7FF0
3FE0
1F80
0000
0000
0000
0F00
0F00
0F00
0F00
0F00
0F00
0F00
0F00
0F00
0F00
0F00
0F00
0F00
0F00
0F00
0F00
0F00
ENDCHAR
STARTCHAR Iogonek
ENCODING 302
SWIDTH 294 0
DWIDTH 11 0
BBX 8 36 0 -9
BITMAP
1E
1E
1E
1E
1E
1E
1E
1E
1E
1E
1E
1E
1E
1E
1E
1E
1E
1E
1E
1E
1E
1E
1E
1E
1E
1E
1E
1C
78
F0
E0
E0
FF
FE
7E
3C
ENDCHAR
STARTCHAR iogonek
ENCODING 303
SWIDTH 249 0
DWIDTH 9 0
BBX 8 36 -1 -9
BITMAP
0E
1F
1F
1F
0E
00
00
00
00
00
1E
1E
1E
1E
1E
1E
1E
1E
1E
1E
1E
1E
1E
1E
1E
1E
1E
1C
38
70
F0
F0
FF
FF
7F
1C
ENDCHAR
STARTCHAR Idotaccent
ENCODING 304
SWIDTH 294 0
DWIDTH 11 0
BBX 5 35 3 0
BITMAP
70
F8
F8
F8
70
00
00
00
F0
F0
F0
F0
F0
F0
F0
F0
F0
F0
F0
F0
F0
F0
F0
F0
F0
F0
F0
F0
F0
F0
F0
F0
F0
F0
F0
ENDCHAR
STARTCHAR dotlessi
ENCODING 305
SWIDTH 249 0
DWIDTH 9 0
BBX 4 17 2 0
BITMAP
F0
F0
F0
F0
F0
F0
F0
F0
F0
F0
F0
F0
F0
F0
F0
F0
F0
ENDCHAR
STARTCHAR IJ
ENCODING 306
SWIDTH 722 0
DWIDTH 26 0
BBX 20 28 3 -1
BITMAP
F000F0
F000F0
F000F0
F000F0
F000F0
F000F0
F000F0
F000F0
F000F0
F000F0
F000F0
F000F0
F000F0
F000F0
F000F0
F000F0
F000F0
F000F0
F000F0
F000F0
F000F0
F001F0
F001E0
F077E0
F07FC0
F0FFC0
F0FF00
000800
ENDCHAR
STARTCHAR ij
ENCODING 307
SWIDTH 515 0
DWIDTH 19 0
BBX 14 36 2 -9
BITMAP
7030
F878
F8FC
F87C
7078
0000
0000
0000
0000
0000
F078
F078
F078
F078
F078
F078
F078
F078
F078
F078
F078
F078
F078
F078
F078
F078
F078
0078
0078
0078
0078
0078
0078
0078
0078
0078
ENDCHAR
STARTCHAR Jcircumflex
ENCODING 308
SWIDTH 454 0
DWIDTH 16 0
BBX 16 38 0 -1
BITMAP
0060
00F0
01F8
03FC
079F
0F0F
0206
0000
0000
0000
01F0
01F0
01F0
01F0
01F0
01F0
01F0
01F0
01F0
01F0
01F0
01F0
01F0
01F0
01F0
01F0
01F0
01F0
01F0
01E0
01E0
01E0
03E0
67E0
FFC0
FF80
FF00
0800
ENDCHAR
STARTCHAR jcircumflex
ENCODING 309
SWIDTH 342 0
DWIDTH 12 0
BBX 12 33 0 -6
BITMAP
0600
0F00
1F80
3FE0
79F0
F0F0
2060
0000
0000
0000
0000
0000
0F00
0F00
0F00
0F00
0F00
0F00
0F00
0F00
0F00
0F00
0F00
0F00
0F00
0F00
0F00
0F00
0F00
0F00
0F00
0F00
0F00
ENDCHAR
STARTCHAR Kcedilla
ENCODING 310
SWIDTH 662 0
DWIDTH 24 0
BBX 20 37 3 -10
BITMAP
F003F0
F007E0
F00FC0
F01F80
F03F00
F07E00
F0FC00
F1F800
F3F000
F7E000
F7C000
FF8000
FF0000
FF8000
FFC000
FBE000
F3F000
F1F800
F0F800
F07C00
F03E00
F01F00
F01F80
F00FC0
F007C0
F003E0
F001F0
000000
000000
03C000
03C000
03C000
03C000
00C000
00C000
01C000
018000
ENDCHAR
STARTCHAR kcedilla
ENCODING 311
SWIDTH 498 0
DWIDTH 18 0
BBX 15 40 2 -10
BITMAP
F000
F000
F000
F000
F000
F000
F000
F000
F000
F000
F000
F000
F000
F07E
F0FC
F1F8
F3F0
F7E0
FFC0
FF00
FF00
FF80
FFC0
F3E0
F3E0
F1F0
F0F8
F07C
F03E
F03E
0000
0000
0780
0780
0780
0780
0380
0380
0300
0700
ENDCHAR
STARTCHAR kgreenlandic
ENCODING 312
SWIDTH 498 0
DWIDTH 18 0
BBX 15 17 2 0
BITMAP
F07E
F0FC
F1F8
F3F0
F7E0
FFC0
FF00
FF00
FF80
FFC0
F3E0
F3E0
F1F0
F0F8
F07C
F03E
F03E
ENDCHAR
STARTCHAR Lacute
ENCODING 313
SWIDTH 443 0
DWIDTH 16 0
BBX 12 37 3 0
BITMAP
0200
0780
0FC0
1F80
3E00
7C00
3800
0000
0000
0000
F000
F000
F000
F000
F000
F000
F000
F000
F000
F000
F000
F000
F000
F000
F000
F000
F000
F000
F000
F000
F000
F000
F000
FFF0
FFF0
FFF0
FFF0
ENDCHAR
STARTCHAR lacute
ENCODING 314
SWIDTH 249 0
DWIDTH 9 0
BBX 9 38 1 0
BITMAP
0400
0F00
1F80
3F00
7C00
F800
6000
0000
7800
7800
7800
7800
7800
7800
7800
7800
7800
7800
7800
7800
7800
7800
7800
7800
7800
7800
7800
7800
7800
7800
7800
7800
7800
7800
7800
7800
7800
7800
ENDCHAR
STARTCHAR Lcedilla
ENCODING 315
SWIDTH 443 0
DWIDTH 16 0
BBX 12 37 3 -10
BITMAP
F000
F000
F000
F000
F000
F000
F000
F000
F000
F000
F000
F000
F000
F000
F000
F000
F000
F000
F000
F000
F000
F000
F000
FFF0
FFF0
FFF0
FFF0
0000
0000
0F00
0F00
0F00
0F00
0300
0700
0700
0600
ENDCHAR
STARTCHAR lcedilla
ENCODING 316
SWIDTH 249 0
DWIDTH 9 0
BBX 5 40 2 -10
BITMAP
F0
F0
F0
F0
F0
F0
F0
F0
F0
F0
F0
F0
F0
F0
F0
F0
F0
F0
F0
F0
F0
F0
F0
F0
F0
F0
F0
F0
F0
F0
00
00
78
78
78
78
38
38
70
70
ENDCHAR
STARTCHAR Lcaron
ENCODING 317
SWIDTH 443 0
DWIDTH 16 0
BBX 12 27 3 0
BITMAP
F1E0
F1E0
F1E0
F1E0
F060
F060
F0E0
F0C0
F040
F000
F000
F000
F000
F000
F000
F000
F000
F000
F000
F000
F000
F000
F000
FFF0
FFF0
FFF0
FFF0
ENDCHAR
STARTCHAR lcaron
ENCODING 318
SWIDTH 356 0
DWIDTH 13 0
BBX 10 30 2 0
BITMAP
F000
F000
F000
F3C0
F3C0
F3C0
F3C0
F0C0
F0C0
F1C0
F1C0
F080
F000
F000
F000
F000
F000
F000
F000
F000
F000
F000
F000
F000
F000
F000
F000
F000
F000
F000
ENDCHAR
STARTCHAR Ldotaccent
ENCODING 319
SWIDTH 443 0
DWIDTH 16 0
BBX 13 27 3 0
BITMAP
F000
F000
F0F0
F0F8
F0F8
F0F8
F070
F000
F000
F000
F000
F000
F000
F000
F000
F000
F000
F000
F000
F000
F000
F000
F000
FFF0
FFF0
FFF0
FFF0
ENDCHAR
STARTCHAR ldotaccent
ENCODING 320
SWIDTH 468 0
DWIDTH 17 0
BBX 13 30 2 0
BITMAP
F000
F000
F000
F000
F000
F0F0
F1F8
F1F8
F0F0
F0F0
F000
F000
F000
F000
F000
F000
F000
F000
F000
F000
F000
F000
F000
F000
F000
F000
F000
F000
F000
F000
ENDCHAR
STARTCHAR Lslash
ENCODING 321
SWIDTH 443 0
DWIDTH 16 0
BBX 14 27 1 0
BITMAP
3C00
3C00
3C00
3C00
3C00
3C00
3C00
3C30
3C70
3DF0
3FF0
3FE0
3F80
7F00
FC00
FC00
FC00
BC00
3C00
3C00
3C00
3C00
3C00
3FFC
3FFC
3FFC
3FFC
ENDCHAR
STARTCHAR lslash
ENCODING 322
SWIDTH 298 0
DWIDTH 11 0
BBX 9 30 1 0
BITMAP
3C00
3C00
3C00
3C00
3C00
3C00
3C00
3C00
3C00
3C00
3C00
3C80
3D80
3F80
3F80
7F00
FE00
FC00
FC00
BC00
3C00
3C00
3C00
3C00
3C00
3C00
3C00
3C00
3C00
3C00
ENDCHAR
STARTCHAR Nacute
ENCODING 323
SWIDTH 844 0
DWIDTH 30 0
BBX 24 38 3 -1
BITMAP
000200
000700
000FC0
001F00
003E00
007C00
003000
000000
800000
C00000
E0000F
F0000F
F8000F
FC000F
FC000F
FE000F
FF000F
FF800F
F7C00F
F3E00F
F1F00F
F0F80F
F07C0F
F03E0F
F01F0F
F00F8F
F00FCF
F007EF
F003FF
F001FF
F000FF
F0007F
F0003F
F0001F
F0000F
F00007
F00003
000001
ENDCHAR
STARTCHAR nacute
ENCODING 324
SWIDTH 548 0
DWIDTH 20 0
BBX 15 27 2 0
BITMAP
0070
007C
00F8
01E0
03C0
0780
0300
0000
0000
00C0
F3F8
FFFC
FFFE
FC3E
F81E
F81E
F81E
F81E
F01E
F01E
F01E
F01E
F01E
F01E
F01E
F01E
F01E
ENDCHAR
STARTCHAR Ncedilla
ENCODING 325
SWIDTH 844 0
DWIDTH 30 0
BBX 24 39 3 -10
BITMAP
800000
C00000
E0000F
F0000F
F8000F
FC000F
FC000F
FE000F
FF000F
FF800F
F7C00F
F3E00F
F1F00F
F0F80F
F07C0F
F03E0F
F01F0F
F00F8F
F00FCF
F007EF
F003FF
F001FF
F000FF
F0007F
F0003F
F0001F
F0000F
F00007
F00003
000001
000000
001E00
001E00
001E00
001E00
000E00
000E00
000C00
001C00
ENDCHAR
STARTCHAR ncedilla
ENCODING 326
SWIDTH 548 0
DWIDTH 20 0
BBX 15 28 2 -10
BITMAP
00C0
F3F8
FFFC
FFFE
FC3E
F81E
F81E
F81E
F81E
F01E
F01E
F01E
F01E
F01E
F01E
F01E
F01E
F01E
0000
0000
03C0
03C0
03C0
03C0
00C0
01C0
01C0
0180
ENDCHAR
STARTCHAR Ncaron
ENCODING 327
SWIDTH 844 0
DWIDTH 30 0
BBX 24 38 3 -1
BITMAP
00C180
03E3C0
01F7C0
00FF80
007F00
003C00
001800
000000
800000
C00000
E0000F
F0000F
F8000F
FC000F
FC000F
FE000F
FF000F
FF800F
F7C00F
F3E00F
F1F00F
F0F80F
F07C0F
F03E0F
F01F0F
F00F8F
F00FCF
F007EF
F003FF
F001FF
F000FF
F0007F
F0003F
F0001F
F0000F
F00007
F00003
000001
ENDCHAR
STARTCHAR ncaron
ENCODING 328
SWIDTH 548 0
DWIDTH 20 0
BBX 15 27 2 0
BITMAP
1C18
3E3C
1F78
0FF0
07E0
03C0
0180
0000
0000
00C0
F3F8
FFFC
FFFE
FC3E
F81E
F81E
F81E
F81E
F01E
F01E
F01E
F01E
F01E
F01E
F01E
F01E
F01E
ENDCHAR
STARTCHAR quoterightn
ENCODING 329
SWIDTH 777 0
DWIDTH 28 0
BBX 22 28 2 0
BITMAP
0C0000
1F0000
1E0000
1E0000
3C0000
3C0000
780000
780000
700000
F00000
600180
01EFF0
01FFF8
01FFF8
01F87C
01F03C
01F03C
01E03C
01E03C
01E03C
01E03C
01E03C
01E03C
01E03C
01E03C
01E03C
01E03C
01E03C
ENDCHAR
STARTCHAR Omacron
ENCODING 332
SWIDTH 893 0
DWIDTH 32 0
BBX 28 35 2 -1
BITMAP
00FFF000
00FFF000
00FFF000
00FFF000
00000000
00000000
000F0000
00FFF000
01FFFC00
07FFFE00
0FF07F00
1F801F80
3F0007C0
3E0003C0
7C0003E0
780001E0
F80001F0
F00000F0
F00000F0
F00000F0
F00000F0
F00000F0
F00000F0
F00000F0
F80001F0
780001E0
7C0003E0
3E0007C0
3F000FC0
1F801F80
0FF0FF00
07FFFE00
01FFF800
007FE000
00040000
ENDCHAR
STARTCHAR omacron
ENCODING 333
SWIDTH 601 0
DWIDTH 22 0
BBX 18 25 2 -1
BITMAP
1FFE00
1FFE00
1FFE00
1FFE00
000000
000000
00C000
0FF800
1FFE00
3FFF00
7C1F80
F80780
F00780
F003C0
F003C0
F003C0
F003C0
F003C0
F00780
780F80
7E1F00
3FFF00
1FFE00
0FF800
008000
ENDCHAR
STARTCHAR Obreve
ENCODING 334
SWIDTH 893 0
DWIDTH 32 0
BBX 28 37 2 -1
BITMAP
00E07000
00E07000
00F0F000
007FE000
007FE000
001F8000
00000000
00000000
000F0000
00FFF000
01FFFC00
07FFFE00
0FF07F00
1F801F80
3F0007C0
3E0003C0
7C0003E0
780001E0
F80001F0
F00000F0
F00000F0
F00000F0
F00000F0
F00000F0
F00000F0
F00000F0
F80001F0
780001E0
7C0003E0
3E0007C0
3F000FC0
1F801F80
0FF0FF00
07FFFE00
01FFF800
007FE000
00040000
ENDCHAR
STARTCHAR obreve
ENCODING 335
SWIDTH 601 0
DWIDTH 22 0
BBX 18 27 2 -1
BITMAP
3C0E00
1C1E00
1E1E00
1FFC00
0FF800
03F000
000000
000000
00C000
0FF800
1FFE00
3FFF00
7C1F80
F80780
F00780
F003C0
F003C0
F003C0
F003C0
F003C0
F00780
780F80
7E1F00
3FFF00
1FFE00
0FF800
008000
ENDCHAR
STARTCHAR Ohungarumlaut
ENCODING 336
SWIDTH 893 0
DWIDTH 32 0
BBX 28 38 2 -1
BITMAP
00040800
000E1E00
001FBF00
003F7E00
007CF800
00F9F000
0060C000
00000000
00000000
000F0000
00FFF000
01FFFC00
07FFFE00
0FF07F00
1F801F80
3F0007C0
3E0003C0
7C0003E0
780001E0
F80001F0
F00000F0
F00000F0
F00000F0
F00000F0
F00000F0
F00000F0
F00000F0
F80001F0
780001E0
7C0003E0
3E0007C0
3F000FC0
1F801F80
0FF0FF00
07FFFE00
01FFF800
007FE000
00040000
ENDCHAR
STARTCHAR ohungarumlaut
ENCODING 337
SWIDTH 601 0
DWIDTH 22 0
BBX 18 28 2 -1
BITMAP
038300
03C7C0
078F80
0F0F00
0E1E00
1C3C00
081800
000000
000000
00C000
0FF800
1FFE00
3FFF00
7C1F80
F80780
F00780
F003C0
F003C0
F003C0
F003C0
F003C0
F00780
780F80
7E1F00
3FFF00
1FFE00
0FF800
008000
ENDCHAR
STARTCHAR OE
ENCODING 338
SWIDTH 1183 0
DWIDTH 43 0
BBX 39 29 2 -1
BITMAP
000F000000
00FFF0FFFE
03FFF8FFFE
07FFFEFFFE
0FF0FFFFFE
1F801FF000
3F000FF000
3E0007F000
7C0003F000
780001F000
F80001F000
F00001FFFC
F00000FFFC
F00000FFFC
F00000FFFC
F00000F000
F00000F000
F00001F000
F80001F000
780001F000
7C0003F000
3E0007F000
3F000FF000
1F801FF000
0FF1FFFFFE
07FFFCFFFE
01FFF8FFFE
007FE0FFFE
0002000000
ENDCHAR
STARTCHAR oe
ENCODING 339
SWIDTH 953 0
DWIDTH 34 0
BBX 31 19 2 -1
BITMAP
00C00600
0FF83FE0
1FFE7FF0
3FFFFFF8
7C1FF07C
7807E03C
F007E03C
F003FFFC
F003FFFE
F003FFFE
F003C000
F003C000
F007E018
780FE03E
7C1FF87C
3FFFFFF8
1FFC7FF0
0FF83FE0
00800200
ENDCHAR
STARTCHAR Racute
ENCODING 340
SWIDTH 602 0
DWIDTH 22 0
BBX 17 36 3 0
BITMAP
00E000
01F000
03E000
07C000
0F0000
0E0000
000000
000000
000000
FFC000
FFF000
FFF800
FFFC00
F03E00
F01E00
F01E00
F01E00
F01E00
F01E00
F01E00
F03E00
FFFC00
FFF800
FFF000
FFC000
F3C000
F3E000
F1F000
F0F000
F0F800
F07C00
F03E00
F03E00
F01F00
F00F80
F00F80
ENDCHAR
STARTCHAR racute
ENCODING 341
SWIDTH 374 0
DWIDTH 13 0
BBX 12 27 2 0
BITMAP
01C0
03F0
03C0
0780
0F00
1E00
0C00
0000
0000
0180
F7F0
FFE0
FFE0
FC40
F800
F800
F800
F000
F000
F000
F000
F000
F000
F000
F000
F000
F000
ENDCHAR
STARTCHAR Rcedilla
ENCODING 342
SWIDTH 602 0
DWIDTH 22 0
BBX 17 37 3 -10
BITMAP
FFC000
FFF000
FFF800
FFFC00
F03E00
F01E00
F01E00
F01E00
F01E00
F01E00
F01E00
F03E00
FFFC00
FFF800
FFF000
FFC000
F3C000
F3E000
F1F000
F0F000
F0F800
F07C00
F03E00
F03E00
F01F00
F00F80
F00F80
000000
000000
03C000
03C000
03C000
03C000
01C000
01C000
018000
038000
ENDCHAR
STARTCHAR rcedilla
ENCODING 343
SWIDTH 374 0
DWIDTH 13 0
BBX 12 28 2 -10
BITMAP
0180
F7F0
FFE0
FFE0
FC40
F800
F800
F800
F000
F000
F000
F000
F000
F000
F000
F000
F000
F000
0000
0000
1E00
1E00
1E00
1E00
0E00
0E00
1C00
1C00
ENDCHAR
STARTCHAR Rcaron
ENCODING 344
SWIDTH 602 0
DWIDTH 22 0
BBX 17 37 3 0
BITMAP
306000
78F800
7DF000
1FE000
0FC000
078000
030000
000000
000000
000000
FFC000
FFF000
FFF800
FFFC00
F03E00
F01E00
F01E00
F01E00
F01E00
F01E00
F01E00
F03E00
FFFC00
FFF800
FFF000
FFC000
F3C000
F3E000
F1F000
F0F000
F0F800
F07C00
F03E00
F03E00
F01F00
F00F80
F00F80
ENDCHAR
STARTCHAR rcaron
ENCODING 345
SWIDTH 374 0
DWIDTH 13 0
BBX 13 27 1 0
BITMAP
7060
F8F0
7DE0
3FC0
1F80
0F00
0600
0000
0000
00C0
7BF8
7FF0
7FF0
7E20
7C00
7C00
7C00
7800
7800
7800
7800
7800
7800
7800
7800
7800
7800
ENDCHAR
STARTCHAR Sacute
ENCODING 346
SWIDTH 583 0
DWIDTH 21 0
BBX 17 38 2 -1
BITMAP
001000
003800
007E00
00FC00
01F000
03E000
018000
000000
000000
01E000
07F800
1FFE00
3FFF00
3F1F00
7C0F00
780400
780000
780000
7C0000
3F0000
3FC000
1FF000
07FC00
01FE00
007F00
001F80
000F80
000780
000780
F00780
F00780
F80780
7C0F80
7F3F00
3FFE00
1FFC00
0FF800
008000
ENDCHAR
STARTCHAR sacute
ENCODING 347
SWIDTH 405 0
DWIDTH 15 0
BBX 13 28 1 -1
BITMAP
00E0
01F8
01E0
03C0
0780
0F00
0600
0000
0000
0600
1FC0
3FE0
3FE0
79C0
7800
7C00
3F00
3FC0
0FE0
03F0
01F0
00F8
30F8
F8F0
7FF0
3FE0
1FC0
0200
ENDCHAR
STARTCHAR Scircumflex
ENCODING 348
SWIDTH 583 0
DWIDTH 21 0
BBX 17 38 2 -1
BITMAP
00C000
01E000
03F000
07F800
0F3E00
1E1E00
040800
000000
000000
01E000
07F800
1FFE00
3FFF00
3F1F00
7C0F00
780400
780000
780000
7C0000
3F0000
3FC000
1FF000
07FC00
01FE00
007F00
001F80
000F80
000780
000780
F00780
F00780
F80780
7C0F80
7F3F00
3FFE00
1FFC00
0FF800
008000
ENDCHAR
STARTCHAR scircumflex
ENCODING 349
SWIDTH 405 0
DWIDTH 15 0
BBX 13 28 1 -1
BITMAP
0700
0F80
1FC0
3FE0
7DF0
78F0
3060
0000
0000
0600
1FC0
3FE0
3FE0
79C0
7800
7C00
3F00
3FC0
0FE0
03F0
01F0
00F8
30F8
F8F0
7FF0
3FE0
1FC0
0200
ENDCHAR
STARTCHAR Scedilla
ENCODING 350
SWIDTH 583 0
DWIDTH 21 0
BBX 17 37 2 -9
BITMAP
01E000
07F800
1FFE00
3FFF00
3F1F00
7C0F00
780400
780000
780000
7C0000
3F0000
3FC000
1FF000
07FC00
01FE00
007F00
001F80
000F80
000780
000780
F00780
F00780
F80780
7C0F80
7F3F00
3FFE00
1FFC00
0FF800
008000
000000
008000
00F000
01E000
03C000
03C000
078000
010000
ENDCHAR
STARTCHAR scedilla
ENCODING 351
SWIDTH 405 0
DWIDTH 15 0
BBX 13 27 1 -9
BITMAP
0600
1FC0
3FE0
3FE0
79C0
7800
7C00
3F00
3FC0
0FE0
03F0
01F0
00F8
30F8
F8F0
7FF0
3FE0
1FC0
0200
0000
0200
07C0
0780
0F00
0E00
1C00
0400
ENDCHAR
STARTCHAR Scaron
ENCODING 352
SWIDTH 583 0
DWIDTH 21 0
BBX 17 38 2 -1
BITMAP
0C0C00
1E1E00
0F7C00
07F800
03F000
01E000
00C000
000000
000000
01E000
07F800
1FFE00
3FFF00
3F1F00
7C0F00
780400
780000
780000
7C0000
3F0000
3FC000
1FF000
07FC00
01FE00
007F00
001F80
000F80
000780
000780
F00780
F00780
F80780
7C0F80
7F3F00
3FFE00
1FFC00
0FF800
008000
ENDCHAR
STARTCHAR scaron
ENCODING 353
SWIDTH 405 0
DWIDTH 15 0
BBX 13 28 1 -1
BITMAP
3060
F8F0
7DF0
3FC0
1F80
0F00
0200
0000
0000
0600
1FC0
3FE0
3FE0
79C0
7800
7C00
3F00
3FC0
0FE0
03F0
01F0
00F8
30F8
F8F0
7FF0
3FE0
1FC0
0200
ENDCHAR
STARTCHAR Tcedilla
ENCODING 354
SWIDTH 482 0
DWIDTH 17 0
BBX 17 37 0 -10
BITMAP
FFFF80
FFFF80
FFFF80
FFFF80
01E000
01E000
01E000
01E000
01E000
01E000
01E000
01E000
01E000
01E000
01E000
01E000
01E000
01E000
01E000
01E000
01E000
01E000
01E000
01E000
01E000
01E000
01E000
000000
000000
01E000
01E000
01E000
01E000
00E000
00E000
00C000
01C000
ENDCHAR
STARTCHAR tcedilla
ENCODING 355
SWIDTH 273 0
DWIDTH 10 0
BBX 9 33 1 -10
BITMAP
3C00
3C00
3C00
3C00
3C00
3C00
FF80
FF80
FF80
FF80
3C00
3C00
3C00
3C00
3C00
3C00
3C00
3C00
3C00
3C00
3C00
3C00
3C00
0000
0000
3C00
3C00
3C00
3C00
1C00
1C00
3800
3800
ENDCHAR
STARTCHAR Tcaron
ENCODING 356
SWIDTH 482 0
DWIDTH 17 0
BBX 17 37 0 0
BITMAP
0C1800
1E3E00
1F7C00
0FF800
07F000
01E000
00C000
000000
000000
000000
FFFF80
FFFF80
FFFF80
FFFF80
01E000
01E000
01E000
01E000
01E000
01E000
01E000
01E000
01E000
01E000
01E000
01E000
01E000
01E000
01E000
01E000
01E000
01E000
01E000
01E000
01E000
01E000
01E000
ENDCHAR
STARTCHAR tcaron
ENCODING 357
SWIDTH 376 0
DWIDTH 14 0
BBX 12 27 1 0
BITMAP
00F0
00F0
00F0
00F0
3C70
3C70
3C70
3C60
3C20
3C00
FF80
FF80
FF80
FF80
3C00
3C00
3C00
3C00
3C00
3C00
3C00
3C00
3C00
3C00
3C00
3C00
3C00
ENDCHAR
STARTCHAR Tbar
ENCODING 358
SWIDTH 482 0
DWIDTH 17 0
BBX 17 27 0 0
BITMAP
FFFF80
FFFF80
FFFF80
FFFF80
01E000
01E000
01E000
01E000
01E000
01E000
07F800
07F800
07F800
01E000
01E000
01E000
01E000
01E000
01E000
01E000
01E000
01E000
01E000
01E000
01E000
01E000
01E000
ENDCHAR
STARTCHAR tbar
ENCODING 359
SWIDTH 273 0
DWIDTH 10 0
BBX 9 23 1 0
BITMAP
3C00
3C00
3C00
3C00
3C00
3C00
FF80
FF80
FF80
FF80
3C00
3C00
3C00
FF00
FF00
FF00
3C00
3C00
3C00
3C00
3C00
3C00
3C00
ENDCHAR
STARTCHAR Utilde
ENCODING 360
SWIDTH 738 0
DWIDTH 27 0
BBX 20 36 3 -1
BITMAP
03E180
0FFBC0
0FFF80
0E7F80
041E00
000000
000000
000000
F000F0
F000F0
F000F0
F000F0
F000F0
F000F0
F000F0
F000F0
F000F0
F000F0
F000F0
F000F0
F000F0
F000F0
F000F0
F000F0
F000F0
F000F0
F000F0
F800F0
7800F0
7C01F0
7E03E0
3F8FC0
1FFFC0
0FFF00
03FE00
002000
ENDCHAR
STARTCHAR utilde
ENCODING 361
SWIDTH 544 0
DWIDTH 20 0
BBX 15 26 2 -1
BITMAP
1F04
3FFE
7FFE
31FC
1078
0000
0000
0000
F01E
F01E
F01E
F01E
F01E
F01E
F01E
F01E
F01E
F01E
F01E
781E
781E
7C3E
3FFC
3FF8
0FF0
0100
ENDCHAR
STARTCHAR Umacron
ENCODING 362
SWIDTH 738 0
DWIDTH 27 0
BBX 20 35 3 -1
BITMAP
0FFF80
0FFF80
0FFF80
0FFF80
000000
000000
000000
F000F0
F000F0
F000F0
F000F0
F000F0
F000F0
F000F0
F000F0
F000F0
F000F0
F000F0
F000F0
F000F0
F000F0
F000F0
F000F0
F000F0
F000F0
F000F0
F800F0
7800F0
7C01F0
7E03E0
3F8FC0
1FFFC0
0FFF00
03FE00
002000
ENDCHAR
STARTCHAR umacron
ENCODING 363
SWIDTH 544 0
DWIDTH 20 0
BBX 15 25 2 -1
BITMAP
3FFC
3FFC
3FFC
3FFC
0000
0000
0000
F01E
F01E
F01E
F01E
F01E
F01E
F01E
F01E
F01E
F01E
F01E
781E
781E
7C3E
3FFC
3FF8
0FF0
0100
ENDCHAR
STARTCHAR Ubreve
ENCODING 364
SWIDTH 738 0
DWIDTH 27 0
BBX 20 37 3 -1
BITMAP
0E0780
0F0700
070F00
07FF00
03FE00
01FC00
000000
000000
000000
F000F0
F000F0
F000F0
F000F0
F000F0
F000F0
F000F0
F000F0
F000F0
F000F0
F000F0
F000F0
F000F0
F000F0
F000F0
F000F0
F000F0
F000F0
F000F0
F800F0
7800F0
7C01F0
7E03E0
3F8FC0
1FFFC0
0FFF00
03FE00
002000
ENDCHAR
STARTCHAR ubreve
ENCODING 365
SWIDTH 544 0
DWIDTH 20 0
BBX 15 27 2 -1
BITMAP
381C
381C
3C3C
1FFC
0FF8
07F0
0000
0000
0000
F01E
F01E
F01E
F01E
F01E
F01E
F01E
F01E
F01E
F01E
F01E
781E
781E
7C3E
3FFC
3FF8
0FF0
0100
ENDCHAR
STARTCHAR Uring
ENCODING 366
SWIDTH 738 0
DWIDTH 27 0
BBX 20 38 3 -1
BITMAP
00F800
01FC00
018C00
018C00
018C00
01FC00
00F800
000000
000000
000000
F000F0
F000F0
F000F0
F000F0
F000F0
F000F0
F000F0
F000F0
F000F0
F000F0
F000F0
F000F0
F000F0
F000F0
F000F0
F000F0
F000F0
F000F0
F000F0
F800F0
7800F0
7C01F0
7E03E0
3F8FC0
1FFFC0
0FFF00
03FE00
002000
ENDCHAR
STARTCHAR uring
ENCODING 367
SWIDTH 544 0
DWIDTH 20 0
BBX 15 28 2 -1
BITMAP
07C0
07E0
0C70
0C30
0E70
07E0
03C0
0000
0000
0000
F01E
F01E
F01E
F01E
F01E
F01E
F01E
F01E
F01E
F01E
F01E
781E
781E
7C3E
3FFC
3FF8
0FF0
0100
ENDCHAR
STARTCHAR Uhungarumlaut
ENCODING 368
SWIDTH 738 0
DWIDTH 27 0
BBX 21 38 3 -1
BITMAP
004040
00F0E0
01F9F8
03F3E0
07C7C0
0F8F00
070E00
000000
000000
000000
F000F0
F000F0
F000F0
F000F0
F000F0
F000F0
F000F0
F000F0
F000F0
F000F0
F000F0
F000F0
F000F0
F000F0
F000F0
F000F0
F000F0
F000F0
F000F0
F800F0
7800F0
7C01F0
7E03E0
3F8FC0
1FFFC0
0FFF00
03FE00
002000
ENDCHAR
STARTCHAR uhungarumlaut
ENCODING 369
SWIDTH 544 0
DWIDTH 20 0
BBX 17 28 2 -1
BITMAP
030700
07C780
078F00
0F1E00
1E1C00
1C3800
181000
000000
000000
000000
F01E00
F01E00
F01E00
F01E00
F01E00
F01E00
F01E00
F01E00
F01E00
F01E00
F01E00
781E00
781E00
7C3E00
3FFC00
3FF800
0FF000
010000
ENDCHAR
STARTCHAR Uogonek
ENCODING 370
SWIDTH 738 0
DWIDTH 27 0
BBX 20 36 3 -9
BITMAP
F000F0
F000F0
F000F0
F000F0
F000F0
F000F0
F000F0
F000F0
F000F0
F000F0
F000F0
F000F0
F000F0
F000F0
F000F0
F000F0
F000F0
F000F0
F000F0
F800F0
7800F0
7C01F0
7E03E0
3F8FC0
1FFFC0
0FFF00
03FE00
007800
00F000
01E000
01C000
01C000
01FC00
01FC00
00FC00
007800
ENDCHAR
STARTCHAR uogonek
ENCODING 371
SWIDTH 544 0
DWIDTH 20 0
BBX 15 26 2 -9
BITMAP
F01E
F01E
F01E
F01E
F01E
F01E
F01E
F01E
F01E
F01E
F01E
781E
781E
7C3E
3FFC
3FF8
0FF0
01C0
0780
0700
0F00
0E00
0FF0
0FF0
07E0
03C0
ENDCHAR
STARTCHAR Wcircumflex
ENCODING 372
SWIDTH 1060 0
DWIDTH 38 0
BBX 38 38 0 -1
BITMAP
0000300000
0000780000
0000FC0000
0001FE0000
0003CF8000
0007878000
0001030000
0000000000
0000000000
0000000000
F80030007C
7800300078
7C003000F8
3C007800F8
3C007800F0
3E00FC01F0
1E00FC01E0
1F00FC03E0
0F01FE03C0
0F01FE03C0
0F83FE07C0
0783CF0780
07C3CF0F80
03C78F0F00
03C7878F00
03E7879F00
01EF07DE00
01EF03FE00
00FF03FC00
00FE01FC00
00FE01F800
007C01F800
007C00F800
003C00F000
003800F000
0038006000
0018006000
0010004000
ENDCHAR
STARTCHAR wcircumflex
ENCODING 373
SWIDTH 773 0
DWIDTH 28 0
BBX 27 28 0 -1
BITMAP
00060000
000F0000
001F8000
003FC000
00F9E000
00F0F000
00604000
00000000
00000000
00040000
F80601E0
780601E0
7C0F03C0
3C0F03C0
3E1F8780
1E1F8780
1F3F8F00
0F3FCF00
0FBBDF00
07F9FE00
07F9FE00
03F0FC00
03F0FC00
01E07800
01E07800
00C03000
00C03000
00002000
ENDCHAR
STARTCHAR Ycircumflex
ENCODING 374
SWIDTH 600 0
DWIDTH 22 0
BBX 21 37 0 0
BITMAP
003000
007800
01FC00
03FE00
07DF00
078F80
030600
000000
000000
000000
F80078
7C00F8
7C01F0
3E01F0
1E03E0
1F03C0
0F07C0
0F8780
07CF80
07DF00
03FF00
01FE00
01FC00
00FC00
00F800
007800
007800
007800
007800
007800
007800
007800
007800
007800
007800
007800
007800
ENDCHAR
STARTCHAR ycircumflex
ENCODING 375
SWIDTH 543 0
DWIDTH 20 0
BBX 18 36 1 -9
BITMAP
00C000
01E000
03F000
07F800
0F3E00
1E1E00
040C00
000000
000000
000000
F003C0
F807C0
780780
7C0F80
3C0F00
3E1E00
1E1E00
1F3C00
0F3C00
0FF800
07F800
03F000
03F000
01E000
01E000
03C000
07C000
078000
0F8000
0F0000
1F0000
1E0000
3E0000
3C0000
7C0000
780000
ENDCHAR
STARTCHAR Ydieresis
ENCODING 376
SWIDTH 600 0
DWIDTH 22 0
BBX 21 35 0 0
BITMAP
070700
078780
0F8F80
078F80
078700
000000
000000
000000
F80078
7C00F8
7C01F0
3E01F0
1E03E0
1F03C0
0F07C0
0F8780
07CF80
07DF00
03FF00
01FE00
01FC00
00FC00
00F800
007800
007800
007800
007800
007800
007800
007800
007800
007800
007800
007800
007800
ENDCHAR
STARTCHAR Zacute
ENCODING 377
SWIDTH 625 0
DWIDTH 23 0
BBX 20 37 1 0
BITMAP
000400
000E00
001F80
003E00
007C00
00F000
00E000
000000
000000
000000
3FFFF0
3FFFE0
3FFFE0
3FFFC0
0007C0
000F80
000F00
001F00
001E00
003E00
003C00
007C00
00F800
00F000
01F000
01E000
03E000
03C000
07C000
0F8000
0F0000
1F0000
1E0000
3FFFF0
3FFFF0
7FFFF0
FFFFF0
ENDCHAR
STARTCHAR zacute
ENCODING 378
SWIDTH 543 0
DWIDTH 20 0
BBX 18 27 1 0
BITMAP
001C00
001F00
003E00
007C00
00F800
00E000
00C000
000000
000000
000000
3FFFC0
3FFF80
3FFF00
3FFE00
003C00
007C00
00F800
01F000
03E000
07C000
078000
0F8000
1F0000
3FFF80
7FFF80
7FFF80
FFFF80
ENDCHAR
STARTCHAR Zdotaccent
ENCODING 379
SWIDTH 625 0
DWIDTH 23 0
BBX 20 35 1 0
BITMAP
007800
007800
00FC00
007800
007800
000000
000000
000000
3FFFF0
3FFFE0
3FFFE0
3FFFC0
0007C0
000F80
000F00
001F00
001E00
003E00
003C00
007C00
00F800
00F000
01F000
01E000
03E000
03C000
07C000
0F8000
0F0000
1F0000
1E0000
3FFFF0
3FFFF0
7FFFF0
FFFFF0
ENDCHAR
STARTCHAR zdotaccent
ENCODING 380
SWIDTH 543 0
DWIDTH 20 0
BBX 18 25 1 0
BITMAP
00F000
01F000
01F000
01F000
00E000
000000
000000
000000
3FFFC0
3FFF80
3FFF00
3FFE00
003C00
007C00
00F800
01F000
03E000
07C000
078000
0F8000
1F0000
3FFF80
7FFF80
7FFF80
FFFF80
ENDCHAR
STARTCHAR Zcaron
ENCODING 381
SWIDTH 625 0
DWIDTH 23 0
BBX 20 37 1 0
BITMAP
030300
078780
03EF00
01FE00
00FC00
007800
003000
000000
000000
000000
3FFFF0
3FFFE0
3FFFE0
3FFFC0
0007C0
000F80
000F00
001F00
001E00
003E00
003C00
007C00
00F800
00F000
01F000
01E000
03E000
03C000
07C000
0F8000
0F0000
1F0000
1E0000
3FFFF0
3FFFF0
7FFFF0
FFFFF0
ENDCHAR
STARTCHAR zcaron
ENCODING 382
SWIDTH 543 0
DWIDTH 20 0
BBX 18 27 1 0
BITMAP
060C00
0F1F00
0FBE00
07FC00
01F800
00F000
004000
000000
000000
000000
3FFFC0
3FFF80
3FFF00
3FFE00
003C00
007C00
00F800
01F000
03E000
07C000
078000
0F8000
1F0000
3FFF80
7FFF80
7FFF80
FFFF80
ENDCHAR
STARTCHAR florin
ENCODING 402
SWIDTH 641 0
DWIDTH 23 0
BBX 19 36 1 -7
BITMAP
0000E0
0007E0
000FE0
001FE0
003E00
003C00
003C00
003C00
007C00
007800
007800
007800
07FF80
07FF80
07FF80
00F000
00F000
00F000
00F000
01F000
01E000
01E000
01E000
01E000
01E000
03E000
03C000
03C000
03C000
07C000
078000
1F8000
7F0000
FE0000
FC0000
400000
ENDCHAR
STARTCHAR Scommaaccent
ENCODING 536
SWIDTH 583 0
DWIDTH 21 0
BBX 17 37 2 -9
BITMAP
01E000
07F800
1FFE00
3FFF00
3F1F00
7C0F00
780400
780000
780000
7C0000
3F0000
3FC000
1FF000
07FC00
01FE00
007F00
001F80
000F80
000780
000780
F00780
F00780
F80780
7C0F80
7F3F00
3FFE00
1FFC00
0FF800
008000
000000
008000
00F000
01E000
03E000
03C000
078000
030000
ENDCHAR
STARTCHAR scommaaccent
ENCODING 537
SWIDTH 405 0
DWIDTH 15 0
BBX 13 27 1 -9
BITMAP
0600
1FC0
3FE0
3FE0
79C0
7800
7C00
3F00
3FC0
0FE0
03F0
01F0
00F8
30F8
F8F0
7FF0
3FE0
1FC0
0200
0000
0200
07C0
0780
0F00
1E00
1C00
0400
ENDCHAR
STARTCHAR Tcedilla.dup1
ENCODING 538
SWIDTH 482 0
DWIDTH 17 0
BBX 17 37 0 -10
BITMAP
FFFF80
FFFF80
FFFF80
FFFF80
01E000
01E000
01E000
01E000
01E000
01E000
01E000
01E000
01E000
01E000
01E000
01E000
01E000
01E000
01E000
01E000
01E000
01E000
01E000
01E000
01E000
01E000
01E000
000000
000000
01E000
01E000
01E000
01E000
00E000
00E000
00C000
01C000
ENDCHAR
STARTCHAR tcedilla.dup2
ENCODING 539
SWIDTH 273 0
DWIDTH 10 0
BBX 9 33 1 -10
BITMAP
3C00
3C00
3C00
3C00
3C00
3C00
FF80
FF80
FF80
FF80
3C00
3C00
3C00
3C00
3C00
3C00
3C00
3C00
3C00
3C00
3C00
3C00
3C00
0000
0000
3C00
3C00
3C00
3C00
1C00
1C00
3800
3800
ENDCHAR
STARTCHAR quoteleft
ENCODING 699
SWIDTH 326 0
DWIDTH 12 0
BBX 7 11 2 17
BITMAP
06
0E
0E
1E
1C
3C
38
78
78
F0
30
ENDCHAR
STARTCHAR quoteright
ENCODING 700
SWIDTH 326 0
DWIDTH 12 0
BBX 8 11 2 17
BITMAP
0C
1F
1E
1E
3C
3C
78
78
70
F0
60
ENDCHAR
STARTCHAR circumflex
ENCODING 710
SWIDTH 565 0
DWIDTH 20 0
BBX 12 7 4 20
BITMAP
0600
0F00
1F80
3FE0
7DF0
F0F0
2060
ENDCHAR
STARTCHAR caron
ENCODING 711
SWIDTH 565 0
DWIDTH 20 0
BBX 12 7 4 20
BITMAP
7060
F8F0
7DE0
3FC0
1F80
0F00
0600
ENDCHAR
STARTCHAR macron.dup3
ENCODING 713
SWIDTH 565 0
DWIDTH 20 0
BBX 12 4 4 20
BITMAP
FFF0
FFF0
FFF0
FFF0
ENDCHAR
STARTCHAR breve
ENCODING 728
SWIDTH 565 0
DWIDTH 20 0
BBX 12 6 4 20
BITMAP
E070
E070
F0F0
7FF0
3FE0
1FC0
ENDCHAR
STARTCHAR dotaccent
ENCODING 729
SWIDTH 565 0
DWIDTH 20 0
BBX 5 5 8 20
BITMAP
F0
F8
F8
F8
70
ENDCHAR
STARTCHAR ring
ENCODING 730
SWIDTH 565 0
DWIDTH 20 0
BBX 8 7 7 20
BITMAP
7C
FE
C6
C7
C6
FE
7C
ENDCHAR
STARTCHAR ogonek
ENCODING 731
SWIDTH 650 0
DWIDTH 23 0
BBX 8 9 8 -9
BITMAP
1C
38
70
F0
F0
FF
FF
7F
1E
ENDCHAR
STARTCHAR tilde
ENCODING 732
SWIDTH 565 0
DWIDTH 20 0
BBX 14 5 3 20
BITMAP
3E08
7FFC
FFFC
63F8
20F0
ENDCHAR
STARTCHAR hungarumlaut
ENCODING 733
SWIDTH 565 0
DWIDTH 20 0
BBX 15 7 5 20
BITMAP
0C18
1F3E
3E3C
3C78
78F0
F0E0
60C0
ENDCHAR
STARTCHAR gravecmb
ENCODING 768
SWIDTH 0 0
DWIDTH 0 0
BBX 8 7 -17 20
BITMAP
38
F8
7C
3E
1F
07
03
ENDCHAR
STARTCHAR acutecmb
ENCODING 769
SWIDTH 0 0
DWIDTH 0 0
BBX 9 7 -12 20
BITMAP
0E00
1F80
1E00
3C00
7800
F000
6000
ENDCHAR
STARTCHAR circumflexcmb
ENCODING 770
SWIDTH 0 0
DWIDTH 0 0
BBX 12 7 -16 20
BITMAP
0600
0F00
1F80
7FC0
FBE0
F1F0
6040
ENDCHAR
STARTCHAR tildecmb
ENCODING 771
SWIDTH 0 0
DWIDTH 0 0
BBX 14 5 -17 20
BITMAP
3E18
7FBC
FFFC
E7F8
40E0
ENDCHAR
STARTCHAR macroncmb
ENCODING 772
SWIDTH 0 0
DWIDTH 0 0
BBX 12 4 -16 20
BITMAP
FFF0
FFF0
FFF0
FFF0
ENDCHAR
STARTCHAR brevecmb
ENCODING 774
SWIDTH 0 0
DWIDTH 0 0
BBX 12 6 -16 20
BITMAP
E070
E070
F0F0
FFE0
7FC0
1F80
ENDCHAR
STARTCHAR dotaccentcmb
ENCODING 775
SWIDTH 0 0
DWIDTH 0 0
BBX 5 5 -13 20
BITMAP
78
F8
F8
F8
70
ENDCHAR
STARTCHAR dieresiscmb
ENCODING 776
SWIDTH 0 0
DWIDTH 0 0
BBX 12 5 -16 20
BITMAP
70E0
F1F0
F9F0
F1F0
70E0
ENDCHAR
STARTCHAR ringcmb
ENCODING 778
SWIDTH 0 0
DWIDTH 0 0
BBX 7 7 -13 20
BITMAP
7C
FE
C6
C6
C6
FE
7C
ENDCHAR
STARTCHAR hungarumlautcmb
ENCODING 779
SWIDTH 0 0
DWIDTH 0 0
BBX 15 7 -15 20
BITMAP
1C18
1E3E
3C7C
7878
70F0
E1E0
40C0
ENDCHAR
STARTCHAR caroncmb
ENCODING 780
SWIDTH 0 0
DWIDTH 0 0
BBX 12 7 -16 20
BITMAP
60E0
F1F0
7FE0
3FC0
1F80
0F00
0600
ENDCHAR
STARTCHAR commaaccent
ENCODING 806
SWIDTH 0 0
DWIDTH 0 0
BBX 4 8 -6 -10
BITMAP
F0
F0
F0
F0
70
70
60
E0
ENDCHAR
STARTCHAR cedillacmb
ENCODING 807
SWIDTH 0 0
DWIDTH 0 0
BBX 6 7 -13 -9
BITMAP
10
3C
3C
78
F0
E0
20
ENDCHAR
STARTCHAR ogonekcmb
ENCODING 808
SWIDTH 0 0
DWIDTH 0 0
BBX 8 9 -15 -9
BITMAP
1C
78
F0
E0
E0
FF
FE
7E
3C
ENDCHAR
STARTCHAR soliduslongoverlaycmb
ENCODING 824
SWIDTH 0 0
DWIDTH 0 0
BBX 19 37 -19 -7
BITMAP
000180
0001E0
0001C0
0003C0
0003C0
000780
000780
000F00
000F00
000E00
001E00
001E00
003C00
003C00
007800
007800
00F000
00F000
00F000
01E000
01E000
03C000
03C000
078000
078000
078000
0F0000
0F0000
1E0000
1E0000
3C0000
3C0000
380000
780000
780000
F00000
700000
ENDCHAR
STARTCHAR Deltagreek
ENCODING 916
SWIDTH 753 0
DWIDTH 27 0
BBX 25 27 1 0
BITMAP
003E0000
003E0000
007F0000
007F0000
00FF8000
00F78000
00F78000
01F3C000
01E3C000
01E3C000
03C1E000
03C1E000
07C1F000
0780F000
0780F000
0F80F800
0F007800
0F007C00
1E003C00
1E003C00
3E003E00
3C001E00
3C001E00
7FFFFF00
7FFFFF00
FFFFFF80
FFFFFF80
ENDCHAR
STARTCHAR Omegagreek
ENCODING 937
SWIDTH 753 0
DWIDTH 27 0
BBX 25 28 1 0
BITMAP
003E0000
01FFC000
07FFF000
0FFFF800
1FC0FC00
3F007E00
3E003E00
7C001F00
7C000F00
78000F80
F8000F80
F8000780
F0000780
F0000780
F0000780
F0000780
F8000F80
78000F00
78000F00
3C001F00
3C001E00
1E003C00
0F007800
0780F000
FFE1FF80
FFE3FF80
FFE3FF80
FFE3FF80
ENDCHAR
STARTCHAR pi
ENCODING 960
SWIDTH 702 0
DWIDTH 25 0
BBX 23 20 1 0
BITMAP
FFFFFE
FFFFFE
FFFFFE
FFFFFE
1E00F0
1E00F0
1E00F0
1E00F0
1E00F0
1E00F0
1E00F0
1E00F0
1E00F0
1E00F0
1E00F0
1E00F0
1E00F0
1E00F0
1E00F0
1E00F0
ENDCHAR
STARTCHAR zerowidthjoiner
ENCODING 8205
SWIDTH 0 0
DWIDTH 0 0
BBX 1 1 0 0
BITMAP
00
ENDCHAR
STARTCHAR endash
ENCODING 8211
SWIDTH 641 0
DWIDTH 23 0
BBX 15 3 4 7
BITMAP
FFFE
FFFE
FFFE
ENDCHAR
STARTCHAR emdash
ENCODING 8212
SWIDTH 652 0
DWIDTH 23 0
BBX 23 3 0 7
BITMAP
FFFFFE
FFFFFE
FFFFFE
ENDCHAR
STARTCHAR quoteleft.dup4
ENCODING 8216
SWIDTH 326 0
DWIDTH 12 0
BBX 7 11 2 17
BITMAP
06
0E
0E
1E
1C
3C
38
78
78
F0
30
ENDCHAR
STARTCHAR quoteright.dup5
ENCODING 8217
SWIDTH 326 0
DWIDTH 12 0
BBX 8 11 2 17
BITMAP
0C
1F
1E
1E
3C
3C
78
78
70
F0
60
ENDCHAR
STARTCHAR quotesinglbase
ENCODING 8218
SWIDTH 326 0
DWIDTH 12 0
BBX 8 11 2 -6
BITMAP
0C
0F
1E
1E
3C
3C
38
78
70
F0
60
ENDCHAR
STARTCHAR quotedblleft
ENCODING 8220
SWIDTH 521 0
DWIDTH 19 0
BBX 14 11 2 17
BITMAP
060C
0E1C
0E1C
1E3C
1C38
3C78
3870
78F0
78F0
F1E0
3060
ENDCHAR
STARTCHAR quotedblright
ENCODING 8221
SWIDTH 521 0
DWIDTH 19 0
BBX 15 11 2 17
BITMAP
0C18
1F3E
1E3C
1E3C
3C78
3C78
78F0
78F0
70E0
F1E0
60C0
ENDCHAR
STARTCHAR quotedblbase
ENCODING 8222
SWIDTH 521 0
DWIDTH 19 0
BBX 15 11 2 -6
BITMAP
0C18
0F1E
1E3C
1E3C
3C78
3C78
3870
78F0
70E0
F1E0
60C0
ENDCHAR
STARTCHAR dagger
ENCODING 8224
SWIDTH 641 0
DWIDTH 23 0
BBX 15 37 4 -7
BITMAP
03C0
03C0
03C0
03C0
03C0
03C0
03C0
FFFE
FFFE
FFFE
03C0
03C0
03C0
03C0
03C0
03C0
03C0
03C0
03C0
03C0
03C0
03C0
03C0
03C0
03C0
03C0
03C0
03C0
03C0
03C0
03C0
03C0
03C0
03C0
03C0
03C0
03C0
ENDCHAR
STARTCHAR daggerdbl
ENCODING 8225
SWIDTH 641 0
DWIDTH 23 0
BBX 15 37 4 -7
BITMAP
03C0
03C0
03C0
03C0
03C0
03C0
03C0
FFFE
FFFE
FFFE
03C0
03C0
03C0
03C0
03C0
03C0
03C0
03C0
03C0
03C0
03C0
FFFE
FFFE
FFFE
FFFE
03C0
03C0
03C0
03C0
03C0
03C0
03C0
03C0
03C0
03C0
03C0
03C0
ENDCHAR
STARTCHAR bullet
ENCODING 8226
SWIDTH 753 0
DWIDTH 27 0
BBX 11 12 8 8
BITMAP
0400
3F80
7FC0
7FE0
FFE0
FFE0
FFE0
FFE0
FFE0
7FC0
3F80
0E00
ENDCHAR
STARTCHAR ellipsis
ENCODING 8230
SWIDTH 944 0
DWIDTH 34 0
BBX 28 5 3 -1
BITMAP
780F01E0
F80F01F0
F80F01F0
780F01E0
20000000
ENDCHAR
STARTCHAR perthousand
ENCODING 8240
SWIDTH 1359 0
DWIDTH 49 0
BBX 47 28 1 0
BITMAP
000002000000
0FC003000000
3FF007000000
7FF00E000000
70780C000000
F0381C000000
E03818000000
E03838000000
703830000000
707870000000
7FF0E0000000
3FF0C0000000
0FC1C0000000
000180000000
000380000000
000301000100
000707F00FF0
000E1FF81FF8
000C3E7C3E7C
001C3C1C3C1C
0018381C381C
0038380E781E
0030381E381E
0070381C381C
00E03C3C3C3C
00C01FF81FF8
01C00FF80FF8
018007E007E0
ENDCHAR
STARTCHAR guilsinglleft
ENCODING 8249
SWIDTH 366 0
DWIDTH 13 0
BBX 9 18 2 0
BITMAP
0200
0300
0780
0F00
1E00
3E00
3C00
7800
F000
F000
7800
7C00
3C00
1E00
0F00
0F80
0700
0200
ENDCHAR
STARTCHAR guilsinglright
ENCODING 8250
SWIDTH 366 0
DWIDTH 13 0
BBX 9 17 2 0
BITMAP
7000
F000
7800
3C00
1E00
1E00
0F00
0780
0780
0780
0F00
1E00
3C00
7C00
7800
7000
2000
ENDCHAR
STARTCHAR fraction
ENCODING 8260
SWIDTH 183 0
DWIDTH 7 0
BBX 17 27 -5 0
BITMAP
000380
000300
000700
000600
000E00
000C00
001C00
003800
003000
007000
006000
00E000
00C000
01C000
038000
030000
070000
060000
0E0000
1C0000
1C0000
380000
300000
700000
600000
E00000
C00000
ENDCHAR
STARTCHAR Euro
ENCODING 8364
SWIDTH 617 0
DWIDTH 22 0
BBX 14 29 4 -1
BITMAP
000C
00FC
01FC
07FC
0FF0
1F80
1F00
3E00
7C00
7800
7FF0
FFF0
FFF0
0000
0000
0000
FFF0
FFF0
7FF0
7800
7C00
3E00
1F00
1F80
0FF0
07FC
01FC
007C
0004
ENDCHAR
STARTCHAR trademark
ENCODING 8482
SWIDTH 794 0
DWIDTH 29 0
BBX 27 15 0 12
BITMAP
FFC60180
FFC60180
FFC70380
1C070380
1C078780
1C0F87C0
1C0FC7C0
1C0FCFC0
1C0ECDC0
1C0CFCC0
1C1C78E0
1C1C78E0
1C1C38E0
1C1C30E0
1C1C30E0
ENDCHAR
STARTCHAR Omega
ENCODING 8486
SWIDTH 753 0
DWIDTH 27 0
BBX 25 28 1 0
BITMAP
003E0000
01FFC000
07FFF000
0FFFF800
1FC0FC00
3F007E00
3E003E00
7C001F00
7C000F00
78000F80
F8000F80
F8000780
F0000780
F0000780
F0000780
F0000780
F8000F80
78000F00
78000F00
3C001F00
3C001E00
1E003C00
0F007800
0780F000
FFE1FF80
FFE3FF80
FFE3FF80
FFE3FF80
ENDCHAR
STARTCHAR partialdiff
ENCODING 8706
SWIDTH 565 0
DWIDTH 20 0
BBX 18 27 1 0
BITMAP
3C0000
3F8000
3FE000
1FF800
03FC00
007E00
003E00
001F00
000F80
01C780
0FF780
1FFFC0
3FBFC0
7C0FC0
7807C0
F803C0
F003C0
F003C0
F003C0
F003C0
F003C0
7807C0
7C0780
3E0F80
3FFF00
0FFE00
07F800
ENDCHAR
STARTCHAR Delta
ENCODING 8710
SWIDTH 753 0
DWIDTH 27 0
BBX 25 27 1 0
BITMAP
003E0000
003E0000
007F0000
007F0000
00FF8000
00F78000
00F78000
01F3C000
01E3C000
01E3C000
03C1E000
03C1E000
07C1F000
0780F000
0780F000
0F80F800
0F007800
0F007C00
1E003C00
1E003C00
3E003E00
3C001E00
3C001E00
7FFFFF00
7FFFFF00
FFFFFF80
FFFFFF80
ENDCHAR
STARTCHAR product
ENCODING 8719
SWIDTH 809 0
DWIDTH 29 0
BBX 26 41 2 -10
BITMAP
FFFFFFC0
FFFFFFC0
FFFFFFC0
FFFFFFC0
1E003C00
1E003C00
1E003C00
1E003C00
1E003C00
1E003C00
1E003C00
1E003C00
1E003C00
1E003C00
1E003C00
1E003C00
1E003C00
1E003C00
1E003C00
1E003C00
1E003C00
1E003C00
1E003C00
1E003C00
1E003C00
1E003C00
1E003C00
1E003C00
1E003C00
1E003C00
1E003C00
1E003C00
1E003C00
1E003C00
1E003C00
1E003C00
1E003C00
FFC1FFC0
FFC1FFC0
FFC1FFC0
FFC1FFC0
ENDCHAR
STARTCHAR summation
ENCODING 8721
SWIDTH 753 0
DWIDTH 27 0
BBX 24 41 1 -10
BITMAP
FFFFFF
FFFFFF
FFFFFF
FFFFFF
F8000F
78000F
7C000F
3E000F
3E000F
1F000F
0F8000
0F8000
07C000
03E000
03E000
01F000
00F800
00F800
007C00
003C00
003E00
007C00
007800
00F800
01F000
01F000
03E000
03C000
07C000
0F8000
0F8000
1F000F
1E000F
3E000F
7C000F
7C000F
F8000F
FFFFFF
FFFFFF
FFFFFF
FFFFFF
ENDCHAR
STARTCHAR minus
ENCODING 8722
SWIDTH 641 0
DWIDTH 23 0
BBX 19 4 2 12
BITMAP
FFFFE0
FFFFE0
FFFFE0
FFFFE0
ENDCHAR
STARTCHAR divisionslash
ENCODING 8725
SWIDTH 183 0
DWIDTH 7 0
BBX 17 27 -5 0
BITMAP
000380
000300
000700
000600
000E00
000C00
001C00
003800
003000
007000
006000
00E000
00C000
01C000
038000
030000
070000
060000
0E0000
1C0000
1C0000
380000
300000
700000
600000
E00000
C00000
ENDCHAR
STARTCHAR bulletoperator
ENCODING 8729
SWIDTH 308 0
DWIDTH 11 0
BBX 5 5 3 11
BITMAP
70
F8
F8
F8
70
ENDCHAR
STARTCHAR radical
ENCODING 8730
SWIDTH 753 0
DWIDTH 27 0
BBX 27 34 0 0
BITMAP
0000FFE0
0000FFE0
0001FFE0
0001FFE0
0001E000
0001E000
0003E000
0003E000
0003C000
0003C000
0007C000
0007C000
00078000
00078000
000F8000
000F8000
000F0000
000F0000
001F0000
FE1E0000
FE1E0000
FF1E0000
0F3E0000
0F3C0000
0F3C0000
0FBC0000
07BC0000
07F80000
07F80000
07F80000
03F80000
03F00000
03F00000
03F00000
ENDCHAR
STARTCHAR infinity
ENCODING 8734
SWIDTH 753 0
DWIDTH 27 0
BBX 25 13 1 7
BITMAP
1F80FC00
3FE3FF00
7FF7FF00
F8FF8F80
F07F0780
F03E0780
F03E0780
F03F0780
F8FF8F80
7FF7FF80
7FE3FF00
3FC1FE00
02003000
ENDCHAR
STARTCHAR integral
ENCODING 8747
SWIDTH 565 0
DWIDTH 20 0
BBX 14 41 3 -10
BITMAP
0030
01FC
03FC
03FC
07C4
0780
0780
0780
0780
0780
0780
0780
0780
0780
0780
0780
0780
0780
0780
0780
0780
0780
0780
0780
0780
0780
0780
0780
0780
0780
0780
0780
0780
0780
0780
0780
0780
7F80
FF00
FF00
FC00
ENDCHAR
STARTCHAR approxequal
ENCODING 8776
SWIDTH 565 0
DWIDTH 20 0
BBX 20 14 0 7
BITMAP
0F0040
1FE070
3FFDF0
7FFFE0
78FFC0
603F80
200000
000000
1FC060
3FF0F0
3FFFE0
7FFFE0
F07FC0
601F00
ENDCHAR
STARTCHAR notequal
ENCODING 8800
SWIDTH 565 0
DWIDTH 20 0
BBX 18 19 1 4
BITMAP
000C00
001C00
001C00
003800
FFFFC0
FFFFC0
FFFFC0
FFFFC0
00E000
01E000
01C000
FFFFC0
FFFFC0
FFFFC0
FFFFC0
0F0000
0E0000
1E0000
040000
ENDCHAR
STARTCHAR lessequal
ENCODING 8804
SWIDTH 565 0
DWIDTH 20 0
BBX 18 25 1 1
BITMAP
000040
0001C0
0007C0
001FC0
00FF80
03FC00
0FF000
3FC000
FF0000
FC0000
FC0000
FF0000
3FC000
0FF800
03FE00
007F80
001FC0
0007C0
0001C0
000040
000000
FFFFC0
FFFFC0
FFFFC0
FFFFC0
ENDCHAR
STARTCHAR greaterequal
ENCODING 8805
SWIDTH 565 0
DWIDTH 20 0
BBX 18 25 1 1
BITMAP
800000
F00000
FC0000
FF0000
3FC000
0FF000
03FC00
00FF00
001FC0
0007C0
000FC0
003FC0
00FF00
03FC00
1FF000
7FC000
FF0000
F80000
E00000
800000
000000
FFFFC0
FFFFC0
FFFFC0
FFFFC0
ENDCHAR
STARTCHAR lozenge
ENCODING 9674
SWIDTH 753 0
DWIDTH 27 0
BBX 21 29 3 -1
BITMAP
002000
007000
007800
00F800
01FC00
03FE00
03DE00
07DF00
0F8F80
0F07C0
1F03C0
3E03E0
7C01F0
7800F8
F800F8
7C00F0
3C01F0
3E03E0
1F07C0
0F0780
0F8F80
07DF00
03FE00
01FE00
01FC00
00F800
007000
007000
002000
ENDCHAR
STARTCHAR apple
ENCODING 63743
SWIDTH 790 0
DWIDTH 28 0
BBX 25 30 2 -1
BITMAP
0000C000
0003C000
0003C000
00078000
00078000
000F0000
000E0000
0FE3FC00
1FFFFE00
3FFFFF00
7FFFFE00
7FFFFC00
FFFFFC00
FFFFF800
FFFFF800
FFFFF800
FFFFF800
FFFFF800
FFFFFC00
FFFFFC00
FFFFFE00
7FFFFF00
7FFFFF80
3FFFFF00
3FFFFF00
1FFFFE00
1FFFFE00
0FFFFC00
07FFF800
01806000
ENDCHAR
STARTCHAR fi
ENCODING 64257
SWIDTH 530 0
DWIDTH 19 0
BBX 16 30 1 0
BITMAP
07F0
0FF8
1FFC
3F7E
3C1E
3C1E
3C0F
3C0F
3C00
3C00
3C00
3C00
3C00
FFCF
FFCF
FFCF
FFCF
3C0F
3C0F
3C0F
3C0F
3C0F
3C0F
3C0F
3C0F
3C0F
3C0F
3C0F
3C0F
3C0F
ENDCHAR
STARTCHAR fl
ENCODING 64258
SWIDTH 530 0
DWIDTH 19 0
BBX 16 30 1 0
BITMAP
03F0
0FF8
1FFC
3F7E
3C1E
3C1E
3C0F
3C0F
3C0F
3C0F
3C0F
3C0F
3C0F
FFCF
FFCF
FFCF
FFCF
3C0F
3C0F
3C0F
3C0F
3C0F
3C0F
3C0F
3C0F
3C0F
3C0F
3C0F
3C0F
3C0F
ENDCHAR
STARTCHAR Dieresis
ENCODING -1
SWIDTH 740 0
DWIDTH 27 0
BBX 13 5 7 30
BITMAP
7070
F8F8
F8F8
F8F8
7070
ENDCHAR
STARTCHAR Grave
ENCODING -1
SWIDTH 740 0
DWIDTH 27 0
BBX 9 7 7 30
BITMAP
1000
3800
FC00
3E00
1F00
0F80
0300
ENDCHAR
STARTCHAR judge
ENCODING -1
SWIDTH 700 0
DWIDTH 25 0
BBX 6 7 11 -9
BITMAP
10
3C
3C
78
F0
F0
60
ENDCHAR
STARTCHAR up
ENCODING -1
SWIDTH 294 0
DWIDTH 11 0
BBX 9 7 3 30
BITMAP
0400
0E00
1F80
3F00
7C00
F800
6000
ENDCHAR
STARTCHAR oak
ENCODING -1
SWIDTH 294 0
DWIDTH 11 0
BBX 8 6 -1 30
BITMAP
70
F8
7C
3E
0F
07
ENDCHAR
STARTCHAR uniE770
ENCODING -1
SWIDTH 249 0
DWIDTH 9 0
BBX 11 5 -1 20
BITMAP
71C0
FBE0
FBE0
FBE0
71C0
ENDCHAR
STARTCHAR uniE773
ENCODING -1
SWIDTH 249 0
DWIDTH 9 0
BBX 8 7 3 20
BITMAP
1C
1F
3E
7C
78
F0
60
ENDCHAR
STARTCHAR uniE774
ENCODING -1
SWIDTH 249 0
DWIDTH 9 0
BBX 8 7 -2 20
BITMAP
38
F8
7C
3E
1E
0F
06
ENDCHAR
STARTCHAR uniE772
ENCODING -1
SWIDTH 249 0
DWIDTH 9 0
BBX 11 7 -1 20
BITMAP
0E00
1F00
3F80
7FC0
FBE0
F1E0
60C0
ENDCHAR
STARTCHAR ash
ENCODING -1
SWIDTH 249 0
DWIDTH 9 0
BBX 4 9 2 18
BITMAP
F0
F0
F0
F0
30
30
70
70
20
ENDCHAR
STARTCHAR yea
ENCODING -1
SWIDTH 842 0
DWIDTH 30 0
BBX 13 6 9 30
BITMAP
F038
7078
7878
7FF0
3FE0
1FC0
ENDCHAR
STARTCHAR ice
ENCODING -1
SWIDTH 294 0
DWIDTH 11 0
BBX 12 7 -1 30
BITMAP
0600
0F00
1F80
3FE0
7DF0
F8F0
3060
ENDCHAR
STARTCHAR sure
ENCODING -1
SWIDTH 740 0
DWIDTH 27 0
BBX 12 7 8 30
BITMAP
0400
0F00
3F80
7FC0
FBE0
F1F0
60C0
ENDCHAR
STARTCHAR hung
ENCODING -1
SWIDTH 740 0
DWIDTH 27 0
BBX 14 5 7 30
BITMAP
3C10
7FBC
FFF8
E7F8
41E0
ENDCHAR
STARTCHAR fee
ENCODING -1
SWIDTH 740 0
DWIDTH 27 0
BBX 7 7 10 30
BITMAP
7C
FE
C6
C6
C6
FE
7C
ENDCHAR
STARTCHAR Caron
ENCODING -1
SWIDTH 625 0
DWIDTH 23 0
BBX 12 7 6 30
BITMAP
6060
F0F0
7DE0
3FC0
1F80
0F00
0600
ENDCHAR
STARTCHAR Acute
ENCODING -1
SWIDTH 565 0
DWIDTH 20 0
BBX 9 7 8 30
BITMAP
0400
0E00
1F80
3F00
7C00
F800
6000
ENDCHAR
STARTCHAR eat
ENCODING -1
SWIDTH 294 0
DWIDTH 11 0
BBX 12 5 -1 30
BITMAP
30E0
79F0
F9F0
79F0
78E0
ENDCHAR
STARTCHAR kick
ENCODING -1
SWIDTH 294 0
DWIDTH 11 0
BBX 5 5 3 30
BITMAP
70
F8
F8
F8
70
ENDCHAR
STARTCHAR uniF6C3
ENCODING -1
SWIDTH 249 0
DWIDTH 9 0
BBX 4 8 3 -10
BITMAP
F0
F0
F0
F0
70
70
60
E0
ENDCHAR
STARTCHAR uniE784
ENCODING -1
SWIDTH 249 0
DWIDTH 9 0
BBX 4 8 3 20
BITMAP
E0
E0
C0
C0
F0
F0
F0
F0
ENDCHAR
STARTCHAR Hungarumlaut
ENCODING -1
SWIDTH 893 0
DWIDTH 32 0
BBX 16 7 10 30
BITMAP
0408
0E1E
1FBF
3F7E
7CF8
F9F0
60C0
ENDCHAR
STARTCHAR Macron
ENCODING -1
SWIDTH 565 0
DWIDTH 20 0
BBX 13 4 4 30
BITMAP
FFF8
FFF8
FFF8
FFF8
ENDCHAR
STARTCHAR ooze
ENCODING -1
SWIDTH 294 0
DWIDTH 11 0
BBX 11 4 0 30
BITMAP
FFE0
FFE0
FFE0
FFE0
ENDCHAR
STARTCHAR uniE775
ENCODING -1
SWIDTH 249 0
DWIDTH 9 0
BBX 9 4 0 20
BITMAP
FF80
FF80
FF80
FF80
ENDCHAR
STARTCHAR dotlessj
ENCODING -1
SWIDTH 331 0
DWIDTH 12 0
BBX 4 21 4 -6
BITMAP
F0
F0
F0
F0
F0
F0
F0
F0
F0
F0
F0
F0
F0
F0
F0
F0
F0
F0
F0
F0
F0
ENDCHAR
ENDFONT
